<svg width="48" height="48" viewBox="0 0 48 48" fill="none" xmlns="http://www.w3.org/2000/svg">
<mask id="path-1-outside-1_845_1402" maskUnits="userSpaceOnUse" x="11.6829" y="6.32837" width="27" height="26" fill="black">
<rect fill="white" x="11.6829" y="6.32837" width="27" height="26"/>
<path d="M12.6829 8.70759C12.6829 8.34845 12.6829 8.07102 12.6829 7.69136C12.7296 7.69136 12.8533 7.69326 12.9002 7.69136C14.6196 7.62163 16.3397 7.56601 18.0581 7.47751C19.7733 7.38917 21.4886 7.31961 23.206 7.32927C24.8266 7.33837 26.4411 7.44888 28.0377 7.73929C29.4262 7.99185 30.7719 8.38386 32.0363 9.03082C33.1909 9.62161 34.1979 10.3982 35.0507 11.3757C36.2816 12.7867 37.18 14.3304 37.6541 16.1343C38.0295 17.563 38.1953 19.1765 38.1135 20.6521C38.0289 22.178 37.7019 23.6042 37.118 25.0168C36.4561 26.6182 35.4417 28.085 34.1317 29.2283C33.0435 30.178 31.7527 30.8569 30.3796 31.2958C29.413 31.6047 28.4272 31.6973 27.4213 31.8133C25.7516 32.0058 24.076 32.0006 22.3994 31.9667C21.433 31.9471 19.1234 31.8133 19.1234 31.8133C19.1234 31.8133 19.3076 29.4973 19.3035 28.3661C19.3033 28.3014 19.2986 28.235 19.2842 28.1721C18.9151 26.5593 18.544 24.9468 18.1743 23.3341C17.9922 22.5397 17.8124 21.7447 17.6315 20.9426C17.6372 20.8827 17.6439 20.8303 17.6483 20.7776C17.7006 20.1475 17.7522 19.5173 17.8048 18.8873C17.8747 18.0499 17.9456 17.2126 18.0153 16.3753C18.0759 15.6477 18.1355 14.9201 18.1952 14.1924C18.2606 13.3958 18.3257 12.5992 18.3962 11.7945C18.4192 11.5834 18.4409 11.3805 18.4534 11.177C18.4623 11.0336 18.4585 10.8895 18.4586 10.7361C18.4729 10.5696 18.4887 10.4126 18.5049 10.2557C18.5278 10.035 18.552 9.81443 18.5737 9.5936C18.5875 9.45317 18.5978 9.31239 18.6104 9.16302C18.5509 9.15891 18.5071 9.15559 18.4632 9.15288C17.9024 9.11832 17.3416 9.08476 16.7809 9.04913C15.9359 8.99543 15.091 8.94034 14.2461 8.88577C13.7505 8.85376 13.7556 8.86084 12.6829 8.70759ZM28.1664 24.8066C28.97 24.4049 29.5915 23.8077 30.044 23.0348C30.5145 22.2313 30.7283 21.353 30.7556 20.4286C30.794 19.1239 30.4937 17.9021 29.8249 16.7774C29.501 16.2326 29.1001 15.7506 28.612 15.3458C27.9655 14.8097 27.2179 14.4816 26.4096 14.2738C25.3562 14.003 24.282 13.9042 23.2006 13.8946C22.0998 13.8849 20.9988 13.9125 19.8978 13.9232C19.7195 13.9249 19.5411 13.9234 19.3577 13.9234C19.3577 17.7296 19.3577 21.5142 19.3577 25.305C19.4048 25.3074 19.4449 25.3095 19.485 25.3114C20.4012 25.3553 21.3179 25.3918 22.2336 25.4447C23.5537 25.521 24.8727 25.5713 26.1886 25.386C26.8698 25.29 27.532 25.1278 28.1664 24.8066Z"/>
</mask>
<path d="M12.6829 8.70759C12.6829 8.34845 12.6829 8.07102 12.6829 7.69136C12.7296 7.69136 12.8533 7.69326 12.9002 7.69136C14.6196 7.62163 16.3397 7.56601 18.0581 7.47751C19.7733 7.38917 21.4886 7.31961 23.206 7.32927C24.8266 7.33837 26.4411 7.44888 28.0377 7.73929C29.4262 7.99185 30.7719 8.38386 32.0363 9.03082C33.1909 9.62161 34.1979 10.3982 35.0507 11.3757C36.2816 12.7867 37.18 14.3304 37.6541 16.1343C38.0295 17.563 38.1953 19.1765 38.1135 20.6521C38.0289 22.178 37.7019 23.6042 37.118 25.0168C36.4561 26.6182 35.4417 28.085 34.1317 29.2283C33.0435 30.178 31.7527 30.8569 30.3796 31.2958C29.413 31.6047 28.4272 31.6973 27.4213 31.8133C25.7516 32.0058 24.076 32.0006 22.3994 31.9667C21.433 31.9471 19.1234 31.8133 19.1234 31.8133C19.1234 31.8133 19.3076 29.4973 19.3035 28.3661C19.3033 28.3014 19.2986 28.235 19.2842 28.1721C18.9151 26.5593 18.544 24.9468 18.1743 23.3341C17.9922 22.5397 17.8124 21.7447 17.6315 20.9426C17.6372 20.8827 17.6439 20.8303 17.6483 20.7776C17.7006 20.1475 17.7522 19.5173 17.8048 18.8873C17.8747 18.0499 17.9456 17.2126 18.0153 16.3753C18.0759 15.6477 18.1355 14.9201 18.1952 14.1924C18.2606 13.3958 18.3257 12.5992 18.3962 11.7945C18.4192 11.5834 18.4409 11.3805 18.4534 11.177C18.4623 11.0336 18.4585 10.8895 18.4586 10.7361C18.4729 10.5696 18.4887 10.4126 18.5049 10.2557C18.5278 10.035 18.552 9.81443 18.5737 9.5936C18.5875 9.45317 18.5978 9.31239 18.6104 9.16302C18.5509 9.15891 18.5071 9.15559 18.4632 9.15288C17.9024 9.11832 17.3416 9.08476 16.7809 9.04913C15.9359 8.99543 15.091 8.94034 14.2461 8.88577C13.7505 8.85376 13.7556 8.86084 12.6829 8.70759ZM28.1664 24.8066C28.97 24.4049 29.5915 23.8077 30.044 23.0348C30.5145 22.2313 30.7283 21.353 30.7556 20.4286C30.794 19.1239 30.4937 17.9021 29.8249 16.7774C29.501 16.2326 29.1001 15.7506 28.612 15.3458C27.9655 14.8097 27.2179 14.4816 26.4096 14.2738C25.3562 14.003 24.282 13.9042 23.2006 13.8946C22.0998 13.8849 20.9988 13.9125 19.8978 13.9232C19.7195 13.9249 19.5411 13.9234 19.3577 13.9234C19.3577 17.7296 19.3577 21.5142 19.3577 25.305C19.4048 25.3074 19.4449 25.3095 19.485 25.3114C20.4012 25.3553 21.3179 25.3918 22.2336 25.4447C23.5537 25.521 24.8727 25.5713 26.1886 25.386C26.8698 25.29 27.532 25.1278 28.1664 24.8066Z" fill="#FF9F70"/>
<path d="M12.6829 8.70759C12.6829 8.34845 12.6829 8.07102 12.6829 7.69136C12.7296 7.69136 12.8533 7.69326 12.9002 7.69136C14.6196 7.62163 16.3397 7.56601 18.0581 7.47751C19.7733 7.38917 21.4886 7.31961 23.206 7.32927C24.8266 7.33837 26.4411 7.44888 28.0377 7.73929C29.4262 7.99185 30.7719 8.38386 32.0363 9.03082C33.1909 9.62161 34.1979 10.3982 35.0507 11.3757C36.2816 12.7867 37.18 14.3304 37.6541 16.1343C38.0295 17.563 38.1953 19.1765 38.1135 20.6521C38.0289 22.178 37.7019 23.6042 37.118 25.0168C36.4561 26.6182 35.4417 28.085 34.1317 29.2283C33.0435 30.178 31.7527 30.8569 30.3796 31.2958C29.413 31.6047 28.4272 31.6973 27.4213 31.8133C25.7516 32.0058 24.076 32.0006 22.3994 31.9667C21.433 31.9471 19.1234 31.8133 19.1234 31.8133C19.1234 31.8133 19.3076 29.4973 19.3035 28.3661C19.3033 28.3014 19.2986 28.235 19.2842 28.1721C18.9151 26.5593 18.544 24.9468 18.1743 23.3341C17.9922 22.5397 17.8124 21.7447 17.6315 20.9426C17.6372 20.8827 17.6439 20.8303 17.6483 20.7776C17.7006 20.1475 17.7522 19.5173 17.8048 18.8873C17.8747 18.0499 17.9456 17.2126 18.0153 16.3753C18.0759 15.6477 18.1355 14.9201 18.1952 14.1924C18.2606 13.3958 18.3257 12.5992 18.3962 11.7945C18.4192 11.5834 18.4409 11.3805 18.4534 11.177C18.4623 11.0336 18.4585 10.8895 18.4586 10.7361C18.4729 10.5696 18.4887 10.4126 18.5049 10.2557C18.5278 10.035 18.552 9.81443 18.5737 9.5936C18.5875 9.45317 18.5978 9.31239 18.6104 9.16302C18.5509 9.15891 18.5071 9.15559 18.4632 9.15288C17.9024 9.11832 17.3416 9.08476 16.7809 9.04913C15.9359 8.99543 15.091 8.94034 14.2461 8.88577C13.7505 8.85376 13.7556 8.86084 12.6829 8.70759ZM28.1664 24.8066C28.97 24.4049 29.5915 23.8077 30.044 23.0348C30.5145 22.2313 30.7283 21.353 30.7556 20.4286C30.794 19.1239 30.4937 17.9021 29.8249 16.7774C29.501 16.2326 29.1001 15.7506 28.612 15.3458C27.9655 14.8097 27.2179 14.4816 26.4096 14.2738C25.3562 14.003 24.282 13.9042 23.2006 13.8946C22.0998 13.8849 20.9988 13.9125 19.8978 13.9232C19.7195 13.9249 19.5411 13.9234 19.3577 13.9234C19.3577 17.7296 19.3577 21.5142 19.3577 25.305C19.4048 25.3074 19.4449 25.3095 19.485 25.3114C20.4012 25.3553 21.3179 25.3918 22.2336 25.4447C23.5537 25.521 24.8727 25.5713 26.1886 25.386C26.8698 25.29 27.532 25.1278 28.1664 24.8066Z" stroke="#3F4654" stroke-width="0.612585" mask="url(#path-1-outside-1_845_1402)"/>
<path fill-rule="evenodd" clip-rule="evenodd" d="M45.6893 11.1097C45.6942 11.109 45.7013 11.1138 45.708 11.1253C45.6992 11.1291 45.694 11.1235 45.6893 11.1097ZM45.7136 11.1583C45.7187 11.1576 45.7258 11.1626 45.7323 11.1743C45.7234 11.1782 45.718 11.1726 45.7136 11.1583ZM45.8073 11.4133C45.7829 11.3539 45.7586 11.2949 45.7354 11.2363C45.7466 11.2976 45.7564 11.3494 45.7711 11.3998C45.7974 11.4901 45.8248 11.5801 45.8522 11.67L45.8522 11.6702C45.9053 11.8445 45.9584 12.0188 46.0035 12.1951C46.2327 13.091 46.4311 13.993 46.5199 14.9159C46.5409 15.1335 46.5634 15.351 46.5859 15.5684C46.6215 15.911 46.657 16.2536 46.6863 16.5967C46.7055 16.822 46.7145 17.0482 46.7234 17.2744V17.2745C46.728 17.3894 46.7326 17.5043 46.7385 17.6191C46.7398 17.646 46.752 17.6722 46.7605 17.6874C46.7573 17.5491 46.7542 17.4114 46.7512 17.2741L46.7511 17.2694C46.7402 16.7808 46.7294 16.2975 46.7111 15.8146C46.6989 15.4935 46.6745 15.172 46.6373 14.8528L46.6214 14.7152L46.6214 14.715L46.6214 14.7149L46.6214 14.7149L46.6214 14.7148C46.5808 14.3615 46.5401 14.0069 46.4622 13.6614C46.3333 13.0898 46.172 12.5252 46.0096 11.962C45.9553 11.7739 45.8805 11.5917 45.8073 11.4133ZM46.8101 18.7783C46.8097 18.761 46.797 18.7441 46.782 18.7338C46.77 18.7847 46.7617 18.8291 46.7628 18.8732C46.7653 18.9747 46.7689 19.0762 46.7725 19.1777L46.7725 19.1787V19.1788V19.1788V19.1788V19.1788C46.7787 19.3535 46.7849 19.5282 46.7854 19.7029C46.7868 20.1884 46.7866 20.6739 46.7864 21.1595C46.7861 21.6844 46.7859 22.2094 46.7877 22.7343C46.789 23.1416 46.7996 23.549 46.8118 23.9562C46.8221 24.3019 46.837 24.6475 46.8518 24.9931L46.8601 25.1873C46.8672 25.3551 46.8752 25.5228 46.8831 25.6905C46.8918 25.876 46.9006 26.0614 46.9083 26.247L46.918 26.4855V26.4856V26.4857V26.4857V26.4858C46.9323 26.8409 46.9467 27.1954 46.9681 27.5466C46.9791 26.9094 46.9844 26.2771 46.9811 25.6449C46.9779 25.0459 46.9683 24.4469 46.9586 23.8479L46.9571 23.7523C46.9544 23.5851 46.9483 23.418 46.9422 23.251C46.9391 23.1669 46.9361 23.0829 46.9334 22.9989L46.9159 22.4331L46.9157 22.4261C46.9054 22.0901 46.895 21.7542 46.8841 21.4183C46.8809 21.3185 46.8767 21.2188 46.8725 21.119C46.868 21.0126 46.8636 20.9062 46.8603 20.7997C46.8508 20.4954 46.8429 20.1911 46.8356 19.8868C46.8317 19.7226 46.828 19.5584 46.8244 19.3941C46.8198 19.1889 46.8153 18.9836 46.8101 18.7783ZM46.758 17.7524C46.7727 17.7829 46.7854 17.8201 46.7856 17.8574C46.7873 18.1236 46.7864 18.3899 46.7849 18.6675C46.7764 18.6447 46.7644 18.6106 46.7629 18.5761C46.7532 18.3475 46.7449 18.1187 46.7384 17.8899C46.7372 17.8465 46.746 17.8028 46.758 17.7524ZM12.2227 46.1644C12.2183 46.1667 12.2107 46.164 12.2007 46.1551C12.2057 46.1517 12.2128 46.1552 12.2227 46.1644ZM12.2717 46.1887C12.2672 46.1912 12.2596 46.1885 12.2493 46.1797C12.2545 46.1756 12.2618 46.1789 12.2717 46.1887Z" fill="#575BFE"/>
<mask id="path-3-inside-2_845_1402" fill="white">
<path fill-rule="evenodd" clip-rule="evenodd" d="M1.00971 19.2772C1.00971 19.2772 1 25.2705 1 28.2604C1.00761 28.2697 1.01695 28.2787 1.02629 28.2877C1.04635 28.3071 1.06641 28.3264 1.06935 28.3481C1.10139 28.5844 1.13114 28.8211 1.1609 29.0578C1.20999 29.4484 1.25908 29.8389 1.31843 30.2279C1.73203 32.9386 2.44274 35.5633 3.62008 38.048C4.50735 39.9204 5.6431 41.6256 7.10723 43.0972C8.08676 44.0817 9.24063 44.8223 10.493 45.4091C10.9117 45.6053 11.3373 45.7863 11.7663 45.9687L11.7665 45.9688C11.907 46.0285 12.0479 46.0884 12.189 46.1491C12.1995 46.1507 12.2062 46.1527 12.2122 46.1562C12.2075 46.1535 12.2037 46.153 12.2006 46.1551C12.2107 46.164 12.2183 46.1667 12.2227 46.1644C12.2259 46.1694 12.2358 46.1736 12.2411 46.1736C12.2503 46.175 12.2566 46.177 12.2629 46.1813C12.2573 46.1775 12.2527 46.1769 12.2492 46.1797C12.2596 46.1885 12.2672 46.1912 12.2717 46.1887C12.2847 46.1954 12.2947 46.1969 12.3123 46.1984C12.3322 46.201 12.3518 46.2029 12.3708 46.2047C12.4044 46.2079 12.4366 46.211 12.4671 46.2179C12.4221 46.2079 12.3748 46.2071 12.3316 46.2064H12.3314L12.3245 46.2062C12.4724 46.2649 12.6179 46.3183 12.7624 46.3713C12.8052 46.387 12.8479 46.4027 12.8905 46.4184C13.4398 46.6214 14.0072 46.7587 14.5784 46.8804C14.7709 46.9214 14.9677 46.9428 15.1616 46.9639L15.2083 46.969C15.2206 46.9795 15.2312 46.9809 15.2498 46.9835L15.2654 46.9843C15.3076 46.9866 15.3454 46.9886 15.3862 46.9943C15.3406 46.988 15.2996 46.987 15.2628 46.993C15.3137 47.0018 15.3596 47.0022 15.3998 46.9963C15.5656 47.028 15.7255 47.0545 15.8859 47.0787C15.9967 47.0954 16.1074 47.1125 16.2182 47.1297L16.2188 47.1297C16.5055 47.1741 16.7921 47.2184 17.0797 47.2551L17.2285 47.2741L17.2286 47.2741C17.7809 47.3447 18.3334 47.4154 18.8875 47.4663C20.557 47.6197 22.2313 47.6831 23.9067 47.6355C25.2261 47.5981 26.545 47.5291 27.8627 47.4493C29.3103 47.3616 30.7484 47.1761 32.1865 46.9906L32.3932 46.964C33.7412 46.7903 35.0488 46.4685 36.3087 45.9594C37.5714 45.4491 38.7591 44.7969 39.8689 44.0073C42.147 42.3863 43.9944 40.3769 45.3057 37.8932C46.0505 36.4824 46.5387 34.9871 46.7686 33.4041C46.9831 31.9278 47.02 30.4451 46.9917 28.9579C46.9862 28.6704 46.9788 28.383 46.9714 28.0927L46.9713 28.0912L46.9713 28.09L46.9713 28.0893C46.9668 27.9151 46.9623 27.7398 46.9582 27.5629L46.9535 27.4348L46.8428 26.5483L46.968 27.5466C46.968 27.5466 46.9843 26.2771 46.981 25.6449C46.9779 25.0461 46.9682 24.4473 46.9586 23.8485L46.957 23.7523C46.9543 23.5851 46.9482 23.418 46.9421 23.2508C46.9391 23.1669 46.936 23.0829 46.9334 22.9989C46.9275 22.8107 46.9217 22.6224 46.9159 22.4341C46.9055 22.0955 46.895 21.7569 46.8841 21.4183C46.8808 21.3185 46.8766 21.2188 46.8724 21.119C46.868 21.0126 46.8635 20.9062 46.8602 20.7997C46.8507 20.4954 46.8429 20.1911 46.8356 19.8868C46.8316 19.7226 46.828 19.5585 46.8243 19.3943C46.8198 19.1889 46.8152 18.9836 46.81 18.7783C46.8096 18.7611 46.797 18.7441 46.782 18.7338C46.7892 18.7162 46.7885 18.7054 46.7856 18.6868C46.7828 18.6739 46.7797 18.6617 46.7767 18.65L46.7766 18.6493C46.7729 18.635 46.7695 18.6215 46.7669 18.6083C46.7715 18.631 46.779 18.6519 46.7849 18.6675C46.7863 18.3899 46.7872 18.1236 46.7856 17.8573C46.7853 17.8201 46.7727 17.783 46.758 17.7525C46.758 17.7526 46.758 17.7525 46.758 17.7525C46.765 17.7352 46.7643 17.7246 46.7613 17.7064C46.7582 17.6951 46.7548 17.6847 46.7516 17.6748C46.7475 17.662 46.7436 17.6501 46.7411 17.6384C46.7455 17.658 46.754 17.6759 46.7605 17.6874C46.7572 17.5477 46.7541 17.4086 46.751 17.2699L46.751 17.2693L46.751 17.2686L46.751 17.268C46.7401 16.7799 46.7294 16.2971 46.711 15.8146C46.6988 15.4934 46.6745 15.172 46.6372 14.8528C46.6319 14.8069 46.6266 14.761 46.6213 14.715C46.5807 14.3617 46.54 14.0069 46.4621 13.6613C46.3333 13.0898 46.172 12.5252 46.0095 11.9619C45.9553 11.7738 45.8805 11.5917 45.8072 11.4133C45.7828 11.354 45.7586 11.295 45.7354 11.2365C45.7354 11.2364 45.7354 11.2363 45.7354 11.2363C45.7361 11.2159 45.7361 11.2058 45.734 11.1882C45.7264 11.181 45.7214 11.176 45.7176 11.1684C45.7213 11.175 45.7259 11.177 45.7323 11.1743C45.7257 11.1627 45.7187 11.1577 45.7136 11.1583C45.7127 11.1556 45.7122 11.1515 45.7117 11.1476C45.7113 11.1453 45.711 11.1429 45.7106 11.1409C45.7103 11.1393 45.7099 11.1379 45.7095 11.1368C45.7011 11.1306 45.6961 11.1257 45.692 11.1168C45.696 11.1253 45.7008 11.1284 45.7079 11.1253C45.7013 11.1138 45.6941 11.109 45.6893 11.1097C45.6776 11.0776 45.667 11.0458 45.6565 11.0144C45.6351 10.9502 45.6142 10.8878 45.5862 10.8289C45.4997 10.6468 45.415 10.4637 45.3303 10.2806L45.3301 10.2803C45.1207 9.82748 44.9113 9.37463 44.6739 8.93703C43.9437 7.59098 43.0089 6.40287 41.8332 5.41433C40.7206 4.47884 39.485 3.74452 38.1558 3.16257C36.627 2.49321 35.0351 2.032 33.4034 1.6987C32.2051 1.45392 30.9951 1.2936 29.778 1.18002C27.8022 0.995646 25.8218 0.954683 23.8418 1.04893C22.463 1.11455 21.0846 1.2233 19.7114 1.36523C17.4567 1.59828 15.2305 2.00287 13.0512 2.63769C11.1889 3.18015 9.38234 3.86521 7.69829 4.84148C6.49315 5.54012 5.38355 6.36367 4.45299 7.41345C3.9301 8.00335 3.50233 8.65527 3.14883 9.35824C2.55813 10.5329 2.18104 11.781 1.93606 13.0658C1.77043 13.9346 1.63654 14.8094 1.50267 15.6842C1.46567 15.9259 1.42868 16.1677 1.39102 16.4092C1.33607 16.7617 1.29011 17.1156 1.24376 17.4724C1.2207 17.6499 1.19755 17.8282 1.17315 18.0074C1.16646 18.06 1.15999 18.1095 1.15366 18.158C1.13487 18.3021 1.1173 18.4368 1.0987 18.6145C1.10565 18.5467 1.1134 18.479 1.12115 18.4114C1.13621 18.28 1.15125 18.1487 1.16029 18.0175L1.15505 18.0176C1.09685 18.018 1.04843 18.0183 1 18.0295C1 18.4499 1 18.8702 1.00971 19.2772ZM12.7168 8.88524L12.7171 8.87266L12.7175 8.85405C12.7219 8.47287 12.7219 8.11396 12.7219 7.73455C12.7366 7.73455 12.7514 7.73472 12.7662 7.73489H12.7664C12.7984 7.73525 12.8305 7.73561 12.8625 7.73431C13.3782 7.7134 13.894 7.69375 14.4097 7.67411L14.4099 7.67411C15.6125 7.6283 16.8151 7.5825 18.0169 7.5206C19.731 7.43232 21.4452 7.36281 23.1615 7.37246C24.7811 7.38156 26.3945 7.49199 27.99 7.78221C29.3776 8.03461 30.7224 8.42636 31.986 9.07289C33.1399 9.66329 34.1461 10.4394 34.9983 11.4163C36.2285 12.8263 37.0378 14.4571 37.5115 16.2599C37.8868 17.6877 38.0212 19.1406 37.9395 20.6153C37.855 22.1402 37.5409 23.6132 36.9574 25.0248C36.296 26.6252 35.3483 28.0277 34.0392 29.1702C32.9518 30.1193 31.7065 30.7867 30.3344 31.2253C29.4333 31.5133 28.4621 31.6243 27.5197 31.732C27.4519 31.7397 27.3842 31.7474 27.3166 31.7552C25.6481 31.9476 24.0149 31.975 22.3394 31.941C21.3736 31.9214 19.4296 31.8318 19.4296 31.8318H19.353L19.2857 31.8244C19.2773 32.8084 19.2791 33.8087 19.2826 34.809C19.2879 36.3517 19.2936 37.8944 19.2994 39.4371C19.3018 40.091 19.3042 40.7449 19.3066 41.3988C19.3067 41.4163 19.3067 41.4338 19.3066 41.4531L19.3066 41.4748H12.7157L12.7157 40.411C12.7157 29.9247 12.7157 19.4383 12.7158 8.952C12.7158 8.92975 12.7163 8.9075 12.7168 8.88524Z"/>
</mask>
<path fill-rule="evenodd" clip-rule="evenodd" d="M1.00971 19.2772C1.00971 19.2772 1 25.2705 1 28.2604C1.00761 28.2697 1.01695 28.2787 1.02629 28.2877C1.04635 28.3071 1.06641 28.3264 1.06935 28.3481C1.10139 28.5844 1.13114 28.8211 1.1609 29.0578C1.20999 29.4484 1.25908 29.8389 1.31843 30.2279C1.73203 32.9386 2.44274 35.5633 3.62008 38.048C4.50735 39.9204 5.6431 41.6256 7.10723 43.0972C8.08676 44.0817 9.24063 44.8223 10.493 45.4091C10.9117 45.6053 11.3373 45.7863 11.7663 45.9687L11.7665 45.9688C11.907 46.0285 12.0479 46.0884 12.189 46.1491C12.1995 46.1507 12.2062 46.1527 12.2122 46.1562C12.2075 46.1535 12.2037 46.153 12.2006 46.1551C12.2107 46.164 12.2183 46.1667 12.2227 46.1644C12.2259 46.1694 12.2358 46.1736 12.2411 46.1736C12.2503 46.175 12.2566 46.177 12.2629 46.1813C12.2573 46.1775 12.2527 46.1769 12.2492 46.1797C12.2596 46.1885 12.2672 46.1912 12.2717 46.1887C12.2847 46.1954 12.2947 46.1969 12.3123 46.1984C12.3322 46.201 12.3518 46.2029 12.3708 46.2047C12.4044 46.2079 12.4366 46.211 12.4671 46.2179C12.4221 46.2079 12.3748 46.2071 12.3316 46.2064H12.3314L12.3245 46.2062C12.4724 46.2649 12.6179 46.3183 12.7624 46.3713C12.8052 46.387 12.8479 46.4027 12.8905 46.4184C13.4398 46.6214 14.0072 46.7587 14.5784 46.8804C14.7709 46.9214 14.9677 46.9428 15.1616 46.9639L15.2083 46.969C15.2206 46.9795 15.2312 46.9809 15.2498 46.9835L15.2654 46.9843C15.3076 46.9866 15.3454 46.9886 15.3862 46.9943C15.3406 46.988 15.2996 46.987 15.2628 46.993C15.3137 47.0018 15.3596 47.0022 15.3998 46.9963C15.5656 47.028 15.7255 47.0545 15.8859 47.0787C15.9967 47.0954 16.1074 47.1125 16.2182 47.1297L16.2188 47.1297C16.5055 47.1741 16.7921 47.2184 17.0797 47.2551L17.2285 47.2741L17.2286 47.2741C17.7809 47.3447 18.3334 47.4154 18.8875 47.4663C20.557 47.6197 22.2313 47.6831 23.9067 47.6355C25.2261 47.5981 26.545 47.5291 27.8627 47.4493C29.3103 47.3616 30.7484 47.1761 32.1865 46.9906L32.3932 46.964C33.7412 46.7903 35.0488 46.4685 36.3087 45.9594C37.5714 45.4491 38.7591 44.7969 39.8689 44.0073C42.147 42.3863 43.9944 40.3769 45.3057 37.8932C46.0505 36.4824 46.5387 34.9871 46.7686 33.4041C46.9831 31.9278 47.02 30.4451 46.9917 28.9579C46.9862 28.6704 46.9788 28.383 46.9714 28.0927L46.9713 28.0912L46.9713 28.09L46.9713 28.0893C46.9668 27.9151 46.9623 27.7398 46.9582 27.5629L46.9535 27.4348L46.8428 26.5483L46.968 27.5466C46.968 27.5466 46.9843 26.2771 46.981 25.6449C46.9779 25.0461 46.9682 24.4473 46.9586 23.8485L46.957 23.7523C46.9543 23.5851 46.9482 23.418 46.9421 23.2508C46.9391 23.1669 46.936 23.0829 46.9334 22.9989C46.9275 22.8107 46.9217 22.6224 46.9159 22.4341C46.9055 22.0955 46.895 21.7569 46.8841 21.4183C46.8808 21.3185 46.8766 21.2188 46.8724 21.119C46.868 21.0126 46.8635 20.9062 46.8602 20.7997C46.8507 20.4954 46.8429 20.1911 46.8356 19.8868C46.8316 19.7226 46.828 19.5585 46.8243 19.3943C46.8198 19.1889 46.8152 18.9836 46.81 18.7783C46.8096 18.7611 46.797 18.7441 46.782 18.7338C46.7892 18.7162 46.7885 18.7054 46.7856 18.6868C46.7828 18.6739 46.7797 18.6617 46.7767 18.65L46.7766 18.6493C46.7729 18.635 46.7695 18.6215 46.7669 18.6083C46.7715 18.631 46.779 18.6519 46.7849 18.6675C46.7863 18.3899 46.7872 18.1236 46.7856 17.8573C46.7853 17.8201 46.7727 17.783 46.758 17.7525C46.758 17.7526 46.758 17.7525 46.758 17.7525C46.765 17.7352 46.7643 17.7246 46.7613 17.7064C46.7582 17.6951 46.7548 17.6847 46.7516 17.6748C46.7475 17.662 46.7436 17.6501 46.7411 17.6384C46.7455 17.658 46.754 17.6759 46.7605 17.6874C46.7572 17.5477 46.7541 17.4086 46.751 17.2699L46.751 17.2693L46.751 17.2686L46.751 17.268C46.7401 16.7799 46.7294 16.2971 46.711 15.8146C46.6988 15.4934 46.6745 15.172 46.6372 14.8528C46.6319 14.8069 46.6266 14.761 46.6213 14.715C46.5807 14.3617 46.54 14.0069 46.4621 13.6613C46.3333 13.0898 46.172 12.5252 46.0095 11.9619C45.9553 11.7738 45.8805 11.5917 45.8072 11.4133C45.7828 11.354 45.7586 11.295 45.7354 11.2365C45.7354 11.2364 45.7354 11.2363 45.7354 11.2363C45.7361 11.2159 45.7361 11.2058 45.734 11.1882C45.7264 11.181 45.7214 11.176 45.7176 11.1684C45.7213 11.175 45.7259 11.177 45.7323 11.1743C45.7257 11.1627 45.7187 11.1577 45.7136 11.1583C45.7127 11.1556 45.7122 11.1515 45.7117 11.1476C45.7113 11.1453 45.711 11.1429 45.7106 11.1409C45.7103 11.1393 45.7099 11.1379 45.7095 11.1368C45.7011 11.1306 45.6961 11.1257 45.692 11.1168C45.696 11.1253 45.7008 11.1284 45.7079 11.1253C45.7013 11.1138 45.6941 11.109 45.6893 11.1097C45.6776 11.0776 45.667 11.0458 45.6565 11.0144C45.6351 10.9502 45.6142 10.8878 45.5862 10.8289C45.4997 10.6468 45.415 10.4637 45.3303 10.2806L45.3301 10.2803C45.1207 9.82748 44.9113 9.37463 44.6739 8.93703C43.9437 7.59098 43.0089 6.40287 41.8332 5.41433C40.7206 4.47884 39.485 3.74452 38.1558 3.16257C36.627 2.49321 35.0351 2.032 33.4034 1.6987C32.2051 1.45392 30.9951 1.2936 29.778 1.18002C27.8022 0.995646 25.8218 0.954683 23.8418 1.04893C22.463 1.11455 21.0846 1.2233 19.7114 1.36523C17.4567 1.59828 15.2305 2.00287 13.0512 2.63769C11.1889 3.18015 9.38234 3.86521 7.69829 4.84148C6.49315 5.54012 5.38355 6.36367 4.45299 7.41345C3.9301 8.00335 3.50233 8.65527 3.14883 9.35824C2.55813 10.5329 2.18104 11.781 1.93606 13.0658C1.77043 13.9346 1.63654 14.8094 1.50267 15.6842C1.46567 15.9259 1.42868 16.1677 1.39102 16.4092C1.33607 16.7617 1.29011 17.1156 1.24376 17.4724C1.2207 17.6499 1.19755 17.8282 1.17315 18.0074C1.16646 18.06 1.15999 18.1095 1.15366 18.158C1.13487 18.3021 1.1173 18.4368 1.0987 18.6145C1.10565 18.5467 1.1134 18.479 1.12115 18.4114C1.13621 18.28 1.15125 18.1487 1.16029 18.0175L1.15505 18.0176C1.09685 18.018 1.04843 18.0183 1 18.0295C1 18.4499 1 18.8702 1.00971 19.2772ZM12.7168 8.88524L12.7171 8.87266L12.7175 8.85405C12.7219 8.47287 12.7219 8.11396 12.7219 7.73455C12.7366 7.73455 12.7514 7.73472 12.7662 7.73489H12.7664C12.7984 7.73525 12.8305 7.73561 12.8625 7.73431C13.3782 7.7134 13.894 7.69375 14.4097 7.67411L14.4099 7.67411C15.6125 7.6283 16.8151 7.5825 18.0169 7.5206C19.731 7.43232 21.4452 7.36281 23.1615 7.37246C24.7811 7.38156 26.3945 7.49199 27.99 7.78221C29.3776 8.03461 30.7224 8.42636 31.986 9.07289C33.1399 9.66329 34.1461 10.4394 34.9983 11.4163C36.2285 12.8263 37.0378 14.4571 37.5115 16.2599C37.8868 17.6877 38.0212 19.1406 37.9395 20.6153C37.855 22.1402 37.5409 23.6132 36.9574 25.0248C36.296 26.6252 35.3483 28.0277 34.0392 29.1702C32.9518 30.1193 31.7065 30.7867 30.3344 31.2253C29.4333 31.5133 28.4621 31.6243 27.5197 31.732C27.4519 31.7397 27.3842 31.7474 27.3166 31.7552C25.6481 31.9476 24.0149 31.975 22.3394 31.941C21.3736 31.9214 19.4296 31.8318 19.4296 31.8318H19.353L19.2857 31.8244C19.2773 32.8084 19.2791 33.8087 19.2826 34.809C19.2879 36.3517 19.2936 37.8944 19.2994 39.4371C19.3018 40.091 19.3042 40.7449 19.3066 41.3988C19.3067 41.4163 19.3067 41.4338 19.3066 41.4531L19.3066 41.4748H12.7157L12.7157 40.411C12.7157 29.9247 12.7157 19.4383 12.7158 8.952C12.7158 8.92975 12.7163 8.9075 12.7168 8.88524Z" fill="#575BFE"/>
<path d="M1 28.2604H0.693707V28.3703L0.763548 28.4551L1 28.2604ZM1.00971 19.2772L1.3161 19.2777L1.31592 19.2699L1.00971 19.2772ZM1.02629 28.2877L0.813659 28.5082H0.813659L1.02629 28.2877ZM1.06935 28.3481L1.37287 28.3069H1.37287L1.06935 28.3481ZM1.1609 29.0578L0.856996 29.096L0.856996 29.096L1.1609 29.0578ZM1.31843 30.2279L1.01565 30.2741H1.01565L1.31843 30.2279ZM3.62008 38.048L3.34329 38.1791L3.62008 38.048ZM7.10723 43.0972L7.32436 42.8812H7.32436L7.10723 43.0972ZM10.493 45.4091L10.3631 45.6865H10.3631L10.493 45.4091ZM11.7663 45.9687L11.8981 45.6919L11.8862 45.6868L11.7663 45.9687ZM11.7665 45.9688L11.6347 46.2455L11.6466 46.2506L11.7665 45.9688ZM12.189 46.1491L12.068 46.4305L12.1031 46.4455L12.1407 46.4515L12.189 46.1491ZM12.2122 46.1562L12.0594 46.4217L12.3674 45.8922L12.2122 46.1562ZM12.2006 46.1551L12.0289 45.9015L11.7018 46.1229L11.9977 46.3845L12.2006 46.1551ZM12.2227 46.1644L12.4834 46.0036L12.3332 45.76L12.08 45.8933L12.2227 46.1644ZM12.2411 46.1736L12.2868 45.8708L12.2657 45.8676L12.2443 45.8674L12.2411 46.1736ZM12.2629 46.1813L12.0931 46.4362L12.4357 45.9284L12.2629 46.1813ZM12.2492 46.1797L12.0596 45.9392L11.7651 46.1713L12.0514 46.4135L12.2492 46.1797ZM12.2717 46.1887L12.4115 45.9162L12.2661 45.8416L12.1232 45.9208L12.2717 46.1887ZM12.3123 46.1984L12.3524 45.8947L12.3445 45.8937L12.3366 45.893L12.3123 46.1984ZM12.3708 46.2047L12.4001 45.8998L12.4 45.8998L12.3708 46.2047ZM12.4671 46.2179L12.4006 46.5169L12.5344 45.9191L12.4671 46.2179ZM12.3316 46.2064L12.3367 45.9001H12.3316V46.2064ZM12.3314 46.2064L12.3264 46.5126H12.3314V46.2064ZM12.3245 46.2062L12.3294 45.9L12.2116 46.491L12.3245 46.2062ZM12.7624 46.3713L12.8679 46.0838L12.8679 46.0837L12.7624 46.3713ZM12.8905 46.4184L12.9967 46.1311L12.9967 46.1311L12.8905 46.4184ZM14.5784 46.8804L14.6422 46.5808L14.6422 46.5808L14.5784 46.8804ZM15.1616 46.9639L15.1949 46.6594L15.1947 46.6594L15.1616 46.9639ZM15.2083 46.969L15.4068 46.7357L15.3351 46.6748L15.2417 46.6646L15.2083 46.969ZM15.2498 46.9835L15.2087 47.287L15.2209 47.2886L15.2332 47.2893L15.2498 46.9835ZM15.2654 46.9843L15.2487 47.2901L15.2489 47.2902L15.2654 46.9843ZM15.3862 46.9943L15.3442 47.2977L15.4286 46.691L15.3862 46.9943ZM15.2628 46.993L15.2136 46.6907L15.2105 47.2948L15.2628 46.993ZM15.3998 46.9963L15.4572 46.6955L15.4068 46.6859L15.3559 46.6932L15.3998 46.9963ZM15.8859 47.0787L15.9315 46.7758L15.9315 46.7758L15.8859 47.0787ZM16.2182 47.1297L16.1713 47.4323L16.1787 47.4335L16.1861 47.4343L16.2182 47.1297ZM16.2188 47.1297L16.2657 46.827L16.2583 46.8259L16.2509 46.8251L16.2188 47.1297ZM17.0797 47.2551L17.1185 46.9513L17.1185 46.9513L17.0797 47.2551ZM17.2285 47.2741L17.2799 46.9719L17.2673 46.9703L17.2285 47.2741ZM17.2286 47.2741L17.1772 47.5763L17.1898 47.578L17.2286 47.2741ZM18.8875 47.4663L18.9156 47.1613L18.8875 47.4663ZM23.9067 47.6355L23.898 47.3293H23.898L23.9067 47.6355ZM27.8627 47.4493L27.8442 47.1436H27.8442L27.8627 47.4493ZM32.1865 46.9906L32.1473 46.6868L32.1473 46.6868L32.1865 46.9906ZM32.3932 46.964L32.354 46.6602L32.354 46.6602L32.3932 46.964ZM36.3087 45.9594L36.4234 46.2433L36.3087 45.9594ZM39.8689 44.0073L40.0464 44.2569L39.8689 44.0073ZM45.3057 37.8932L45.5765 38.0362L45.3057 37.8932ZM46.7686 33.4041L47.0717 33.4481L46.7686 33.4041ZM46.9917 28.9579L46.6855 28.9638V28.9638L46.9917 28.9579ZM46.9714 28.0927L47.2776 28.0849L47.2776 28.0845L46.9714 28.0927ZM46.9713 28.0912L46.6651 28.0983L46.6651 28.0995L46.9713 28.0912ZM46.9713 28.09L46.6651 28.0964L46.6651 28.0971L46.9713 28.09ZM46.9713 28.0893L47.2775 28.0829L47.2775 28.0814L46.9713 28.0893ZM46.9582 27.5629L47.2644 27.5558L47.2643 27.5518L46.9582 27.5629ZM46.9535 27.4348L47.2596 27.4237L47.2591 27.4102L47.2574 27.3968L46.9535 27.4348ZM46.8428 26.5483L47.1467 26.5101L46.5389 26.5862L46.8428 26.5483ZM46.968 27.5466L46.6641 27.5847L47.2743 27.5505L46.968 27.5466ZM46.981 25.6449L46.6747 25.6465V25.6465L46.981 25.6449ZM46.9586 23.8485L46.6523 23.8534V23.8534L46.9586 23.8485ZM46.957 23.7523L46.6507 23.7572V23.7572L46.957 23.7523ZM46.9421 23.2508L47.2482 23.2397V23.2397L46.9421 23.2508ZM46.9334 22.9989L46.6272 23.0085V23.0085L46.9334 22.9989ZM46.9159 22.4341L46.6097 22.4436L46.9159 22.4341ZM46.8841 21.4183L46.5779 21.4282V21.4282L46.8841 21.4183ZM46.8724 21.119L46.5664 21.1319V21.1319L46.8724 21.119ZM46.8602 20.7997L47.1663 20.7902V20.7902L46.8602 20.7997ZM46.8356 19.8868L47.1418 19.8794V19.8794L46.8356 19.8868ZM46.8243 19.3943L47.1305 19.3875V19.3875L46.8243 19.3943ZM46.81 18.7783L46.5038 18.7859V18.786L46.81 18.7783ZM46.782 18.7338L46.4987 18.6175L46.4052 18.8453L46.6076 18.9855L46.782 18.7338ZM46.7856 18.6868L47.0884 18.6407L47.087 18.631L47.0849 18.6214L46.7856 18.6868ZM46.7767 18.65L47.0736 18.5745L47.0732 18.5731L46.7767 18.65ZM46.7766 18.6493L46.4798 18.725L46.4801 18.7263L46.7766 18.6493ZM46.7669 18.6083L47.0671 18.5473L46.4661 18.6661L46.7669 18.6083ZM46.7849 18.6675L46.4979 18.7746L47.0911 18.6691L46.7849 18.6675ZM46.7856 17.8573L47.0919 17.8554V17.8554L46.7856 17.8573ZM46.7613 17.7064L47.0636 17.657L47.061 17.6412L47.0568 17.6258L46.7613 17.7064ZM46.7516 17.6748L46.4603 17.7694L46.4603 17.7694L46.7516 17.6748ZM46.7411 17.6384L47.0401 17.572L46.4415 17.7021L46.7411 17.6384ZM46.7605 17.6874L46.4936 17.8376L47.0667 17.6802L46.7605 17.6874ZM46.751 17.2699L47.0572 17.2631L47.0572 17.2625L46.751 17.2699ZM46.751 17.2693L46.4448 17.2755L46.4448 17.2767L46.751 17.2693ZM46.751 17.2686L47.0572 17.2624L47.0572 17.2611L46.751 17.2686ZM46.751 17.268L46.4447 17.2748L46.4448 17.2755L46.751 17.268ZM46.711 15.8146L46.4049 15.8262V15.8262L46.711 15.8146ZM46.6372 14.8528L46.9415 14.8173V14.8173L46.6372 14.8528ZM46.6213 14.715L46.9256 14.6801V14.6801L46.6213 14.715ZM46.4621 13.6613L46.7609 13.594L46.4621 13.6613ZM46.0095 11.9619L46.3038 11.8771V11.8771L46.0095 11.9619ZM45.8072 11.4133L45.5239 11.5297L45.5239 11.5297L45.8072 11.4133ZM45.7354 11.2365L45.4362 11.3018L45.4415 11.3261L45.4507 11.3493L45.7354 11.2365ZM45.7354 11.2363L45.4293 11.2251L45.4279 11.2638L45.4361 11.3016L45.7354 11.2363ZM45.734 11.1882L46.038 11.1512L46.0248 11.0427L45.9458 10.967L45.734 11.1882ZM45.7176 11.1684L45.9843 11.0178L45.4441 11.3063L45.7176 11.1684ZM45.7323 11.1743L45.8549 11.4549L46.1654 11.3192L45.9991 11.024L45.7323 11.1743ZM45.7136 11.1583L45.4237 11.2572L45.504 11.4923L45.7505 11.4624L45.7136 11.1583ZM45.7117 11.1476L46.0154 11.108L46.0153 11.1076L45.7117 11.1476ZM45.7106 11.1409L46.0111 11.0815L46.011 11.081L45.7106 11.1409ZM45.7095 11.1368L45.9917 11.0178L45.9595 10.9416L45.8934 10.8919L45.7095 11.1368ZM45.692 11.1168L45.9695 10.987L45.4131 11.2433L45.692 11.1168ZM45.7079 11.1253L45.8311 11.4057L46.1447 11.2679L45.9728 10.9716L45.7079 11.1253ZM45.6893 11.1097L45.4015 11.2146L45.4865 11.4476L45.7321 11.413L45.6893 11.1097ZM45.6565 11.0144L45.947 10.9173L45.947 10.9173L45.6565 11.0144ZM45.5862 10.8289L45.8628 10.6974L45.8628 10.6974L45.5862 10.8289ZM45.3303 10.2806L45.6085 10.1519L45.6031 10.1413L45.3303 10.2806ZM45.3301 10.2803L45.0519 10.4089L45.0573 10.4196L45.3301 10.2803ZM44.6739 8.93703L44.9431 8.79098V8.79098L44.6739 8.93703ZM41.8332 5.41433L42.0303 5.1799L41.8332 5.41433ZM38.1558 3.16257L38.2787 2.88199L38.1558 3.16257ZM33.4034 1.6987L33.4647 1.3986V1.3986L33.4034 1.6987ZM29.778 1.18002L29.7496 1.48499L29.778 1.18002ZM23.8418 1.04893L23.8273 0.742979L23.8418 1.04893ZM19.7114 1.36523L19.6799 1.06056V1.06056L19.7114 1.36523ZM13.0512 2.63769L13.1368 2.93176L13.0512 2.63769ZM7.69829 4.84148L7.85191 5.10646L7.69829 4.84148ZM4.45299 7.41345L4.6822 7.61663L4.45299 7.41345ZM3.14883 9.35824L3.42247 9.49585L3.14883 9.35824ZM1.93606 13.0658L2.23693 13.1232L1.93606 13.0658ZM1.50267 15.6842L1.80544 15.7305L1.50267 15.6842ZM1.39102 16.4092L1.69366 16.4564V16.4564L1.39102 16.4092ZM1.24376 17.4724L1.5475 17.5118L1.24376 17.4724ZM1.17315 18.0074L0.869644 17.966L0.8693 17.9687L1.17315 18.0074ZM1.15366 18.158L1.45738 18.1977H1.45738L1.15366 18.158ZM1.0987 18.6145L0.794008 18.5832L1.40333 18.6463L1.0987 18.6145ZM1.12115 18.4114L1.42545 18.4463H1.42545L1.12115 18.4114ZM1.16029 18.0175L1.46586 18.0386L1.48858 17.7089L1.1581 17.7112L1.16029 18.0175ZM1.15505 18.0176L1.15722 18.3238H1.15724L1.15505 18.0176ZM1 18.0295L0.931157 17.731L0.693707 17.7858V18.0295H1ZM12.7171 8.87266L13.0233 8.87976L13.0233 8.87904L12.7171 8.87266ZM12.7168 8.88524L13.023 8.89245L13.023 8.89235L12.7168 8.88524ZM12.7175 8.85405L13.0237 8.86044L13.0238 8.85756L12.7175 8.85405ZM12.7219 7.73455V7.42826H12.4156V7.73455H12.7219ZM12.7662 7.73489L12.7627 8.04118H12.7662V7.73489ZM12.7664 7.73489L12.7699 7.42859H12.7664V7.73489ZM12.8625 7.73431L12.8501 7.42827L12.8501 7.42827L12.8625 7.73431ZM14.4097 7.67411L14.4003 7.36795L14.3981 7.36804L14.4097 7.67411ZM14.4099 7.67411L14.4193 7.98026L14.4215 7.98018L14.4099 7.67411ZM18.0169 7.5206L18.0327 7.82649L18.0169 7.5206ZM23.1615 7.37246L23.1632 7.06617L23.1615 7.37246ZM27.99 7.78221L27.9352 8.08356L27.99 7.78221ZM31.986 9.07289L31.8465 9.34557L31.986 9.07289ZM34.9983 11.4163L34.7675 11.6176V11.6176L34.9983 11.4163ZM37.5115 16.2599L37.2153 16.3377V16.3377L37.5115 16.2599ZM37.9395 20.6153L38.2453 20.6322L37.9395 20.6153ZM36.9574 25.0248L36.6744 24.9078L36.9574 25.0248ZM34.0392 29.1702L33.8378 28.9395L34.0392 29.1702ZM30.3344 31.2253L30.4276 31.517V31.517L30.3344 31.2253ZM27.5197 31.732L27.5545 32.0363H27.5545L27.5197 31.732ZM27.3166 31.7552L27.3517 32.0595L27.3517 32.0595L27.3166 31.7552ZM22.3394 31.941L22.3456 31.6348H22.3456L22.3394 31.941ZM19.4296 31.8318L19.4437 31.5255H19.4296V31.8318ZM19.353 31.8318L19.3196 32.1363L19.3363 32.1381H19.353V31.8318ZM19.2857 31.8244L19.3192 31.5199L18.9823 31.4829L18.9794 31.8218L19.2857 31.8244ZM19.2826 34.809L19.5889 34.8079L19.2826 34.809ZM19.2994 39.4371L19.6057 39.436L19.2994 39.4371ZM19.3066 41.3988L19.0003 41.3999L19.3066 41.3988ZM19.3066 41.4531L19.0003 41.4528V41.4529L19.3066 41.4531ZM19.3066 41.4748V41.7811H19.6128L19.6129 41.4749L19.3066 41.4748ZM12.7157 41.4748H12.4094V41.7811H12.7157V41.4748ZM12.7157 40.411H13.022H12.7157ZM12.7158 8.952L12.4095 8.95198V8.952L12.7158 8.952ZM1.30629 28.2604C1.30629 26.7657 1.30872 24.5201 1.31115 22.648C1.31236 21.712 1.31358 20.8694 1.31449 20.2608C1.31494 19.9566 1.31532 19.7108 1.31559 19.5411C1.31572 19.4562 1.31582 19.3904 1.31589 19.3458C1.31593 19.3234 1.31596 19.3064 1.31598 19.295C1.31598 19.2893 1.31599 19.285 1.316 19.2821C1.316 19.2806 1.316 19.2795 1.316 19.2788C1.316 19.2785 1.316 19.2782 1.316 19.278C1.316 19.2779 1.316 19.2778 1.316 19.2778C1.316 19.2777 1.316 19.2777 1.00971 19.2772C0.703419 19.2767 0.703419 19.2768 0.703419 19.2768C0.703419 19.2768 0.703419 19.2769 0.703419 19.277C0.703418 19.2772 0.703418 19.2775 0.703417 19.2778C0.703416 19.2786 0.703414 19.2796 0.703412 19.2811C0.703407 19.284 0.7034 19.2883 0.703391 19.294C0.703373 19.3054 0.703346 19.3225 0.70331 19.3448C0.703239 19.3894 0.703135 19.4552 0.703002 19.5401C0.702736 19.7098 0.702357 19.9556 0.701902 20.2599C0.700991 20.8685 0.699777 21.7111 0.698563 22.6472C0.696135 24.5193 0.693707 26.7652 0.693707 28.2604H1.30629ZM1.23893 28.0672C1.23371 28.0622 1.23206 28.0606 1.23099 28.0595C1.23012 28.0586 1.23256 28.061 1.23645 28.0658L0.763548 28.4551C0.784406 28.4805 0.8072 28.5019 0.813659 28.5082L1.23893 28.0672ZM1.37287 28.3069C1.36075 28.2175 1.31718 28.1557 1.29439 28.1269C1.27136 28.0978 1.24546 28.0736 1.23892 28.0672L0.813659 28.5082C0.819305 28.5136 0.820827 28.5151 0.821669 28.516C0.82232 28.5166 0.819002 28.5133 0.8141 28.5071C0.807083 28.4983 0.775016 28.457 0.765836 28.3892L1.37287 28.3069ZM1.4648 29.0196C1.43508 28.7832 1.40514 28.545 1.37287 28.3069L0.765836 28.3892C0.797642 28.6239 0.827212 28.8591 0.856996 29.096L1.4648 29.0196ZM1.62122 30.1817C1.56258 29.7974 1.51398 29.4109 1.4648 29.0196L0.856996 29.096C0.906006 29.4859 0.955584 29.8805 1.01565 30.2741L1.62122 30.1817ZM3.89688 37.9168C2.73498 35.4648 2.03139 32.8699 1.62122 30.1817L1.01565 30.2741C1.43267 33.0073 2.1505 35.6619 3.34329 38.1791L3.89688 37.9168ZM7.32436 42.8812C5.88832 41.4378 4.77152 39.7626 3.89688 37.9168L3.34329 38.1791C4.24317 40.0782 5.39788 41.8134 6.8901 43.3132L7.32436 42.8812ZM10.623 45.1318C9.39462 44.5562 8.27284 43.8345 7.32436 42.8812L6.8901 43.3132C7.90068 44.3289 9.08665 45.0884 10.3631 45.6865L10.623 45.1318ZM11.8862 45.6868C11.4563 45.504 11.0358 45.3252 10.623 45.1318L10.3631 45.6865C10.7875 45.8854 11.2183 46.0685 11.6465 46.2505L11.8862 45.6868ZM11.8982 45.6922L11.898 45.6921L11.6346 46.2452L11.6348 46.2453L11.8982 45.6922ZM12.3099 45.8676C12.1682 45.8067 12.0268 45.7466 11.8863 45.6869L11.6466 46.2506C11.7872 46.3104 11.9276 46.3701 12.068 46.4305L12.3099 45.8676ZM12.3674 45.8922C12.3136 45.8606 12.2635 45.8508 12.2372 45.8466L12.1407 46.4515C12.1354 46.4507 12.0988 46.4449 12.0571 46.4203L12.3674 45.8922ZM12.3723 46.4087C12.3091 46.4516 12.2374 46.4652 12.1737 46.4585C12.118 46.4526 12.0781 46.4325 12.0594 46.4217L12.365 45.8908C12.3241 45.8672 12.1787 45.8 12.0289 45.9015L12.3723 46.4087ZM12.08 45.8933C12.191 45.8349 12.2916 45.8651 12.3281 45.8798C12.369 45.8962 12.3944 45.9176 12.4035 45.9256L11.9977 46.3845C12.0169 46.4015 12.0511 46.4287 12.0995 46.4481C12.1434 46.4658 12.25 46.4961 12.3655 46.4354L12.08 45.8933ZM12.2443 45.8674C12.2778 45.8677 12.3038 45.8737 12.318 45.8776C12.3341 45.8821 12.349 45.8878 12.3627 45.8943C12.3761 45.9007 12.3932 45.9102 12.4116 45.9242C12.4283 45.9368 12.4579 45.9621 12.4834 46.0036L11.9621 46.3251C12.0102 46.4031 12.0779 46.4372 12.0995 46.4474C12.1258 46.4599 12.1749 46.4793 12.2379 46.4799L12.2443 45.8674ZM12.4357 45.9284C12.3775 45.8886 12.3214 45.876 12.2868 45.8708L12.1955 46.4765C12.1898 46.4757 12.174 46.473 12.1538 46.4661C12.1316 46.4585 12.11 46.4478 12.0901 46.4342L12.4357 45.9284ZM12.4388 46.4202C12.3739 46.4715 12.2936 46.4912 12.2185 46.4821C12.1549 46.4744 12.1114 46.4484 12.0931 46.4362L12.4327 45.9264C12.4088 45.9104 12.3602 45.8822 12.2921 45.874C12.2124 45.8643 12.1281 45.8852 12.0596 45.9392L12.4388 46.4202ZM12.1232 45.9208C12.2351 45.8588 12.338 45.889 12.3743 45.9032C12.4145 45.919 12.4395 45.9395 12.4471 45.9459L12.0514 46.4135C12.0693 46.4287 12.1032 46.4549 12.151 46.4736C12.1948 46.4908 12.3038 46.5211 12.4201 46.4566L12.1232 45.9208ZM12.3366 45.893C12.3293 45.8924 12.3404 45.8929 12.3562 45.8964C12.3652 45.8984 12.3752 45.9012 12.3857 45.905C12.396 45.9087 12.4047 45.9127 12.4115 45.9162L12.1319 46.4612C12.1998 46.4961 12.2587 46.5013 12.288 46.5037L12.3366 45.893ZM12.4 45.8998C12.3802 45.8979 12.366 45.8965 12.3524 45.8947L12.2722 46.502C12.2984 46.5055 12.3233 46.5078 12.3416 46.5096L12.4 45.8998ZM12.5344 45.9191C12.4817 45.9072 12.4298 45.9026 12.4001 45.8998L12.3415 46.5096C12.379 46.5132 12.3915 46.5148 12.3999 46.5167L12.5344 45.9191ZM12.3265 46.5126C12.3492 46.513 12.3642 46.5133 12.3781 46.5142C12.3914 46.5151 12.3981 46.5163 12.4006 46.5169L12.5336 45.9189C12.4532 45.901 12.3746 45.9007 12.3366 45.9001L12.3265 46.5126ZM12.3314 46.5126H12.3316V45.9001H12.3314V46.5126ZM12.3195 46.5125L12.3264 46.5126L12.3363 45.9001L12.3294 45.9L12.3195 46.5125ZM12.8679 46.0837C12.7228 46.0305 12.581 45.9785 12.4373 45.9215L12.2116 46.491C12.3638 46.5513 12.5129 46.606 12.657 46.6589L12.8679 46.0837ZM12.9967 46.1311C12.9537 46.1152 12.9106 46.0994 12.8679 46.0838L12.6569 46.6589C12.6998 46.6746 12.7421 46.6901 12.7844 46.7057L12.9967 46.1311ZM14.6422 46.5808C14.0752 46.46 13.525 46.3263 12.9967 46.1311L12.7844 46.7057C13.3547 46.9165 13.9393 47.0574 14.5145 47.1799L14.6422 46.5808ZM15.1947 46.6594C14.9982 46.638 14.8169 46.618 14.6422 46.5808L14.5145 47.1799C14.7248 47.2248 14.9372 47.2476 15.1285 47.2684L15.1947 46.6594ZM15.2417 46.6646L15.1949 46.6594L15.1282 47.2684L15.175 47.2735L15.2417 46.6646ZM15.291 46.6799C15.285 46.6791 15.2866 46.6793 15.2892 46.6798C15.2926 46.6804 15.3028 46.6822 15.3161 46.6863C15.3303 46.6906 15.3469 46.6971 15.3642 46.7066C15.3815 46.716 15.3956 46.7262 15.4068 46.7357L15.0099 47.2023C15.0984 47.2776 15.195 47.2851 15.2087 47.287L15.291 46.6799ZM15.282 46.6785L15.2665 46.6776L15.2332 47.2893L15.2487 47.2901L15.282 46.6785ZM15.4286 46.691C15.373 46.6832 15.3224 46.6806 15.2818 46.6785L15.2489 47.2902C15.2928 47.2925 15.3179 47.2941 15.3438 47.2977L15.4286 46.691ZM15.312 47.2953C15.31 47.2956 15.3112 47.2952 15.3168 47.2953C15.3224 47.2954 15.3313 47.2959 15.3442 47.2977L15.4283 46.6909C15.3641 46.682 15.2904 46.6782 15.2136 46.6907L15.312 47.2953ZM15.3559 46.6932C15.3503 46.694 15.3369 46.695 15.3151 46.6912L15.2105 47.2948C15.2904 47.3086 15.3689 47.3103 15.4436 47.2995L15.3559 46.6932ZM15.9315 46.7758C15.7742 46.7521 15.6183 46.7262 15.4572 46.6955L15.3424 47.2972C15.5129 47.3297 15.6769 47.3569 15.8402 47.3815L15.9315 46.7758ZM16.265 46.827C16.1544 46.8098 16.043 46.7926 15.9315 46.7758L15.8402 47.3815C15.9503 47.3981 16.0605 47.4152 16.1713 47.4323L16.265 46.827ZM16.2509 46.8251L16.2502 46.825L16.1861 47.4343L16.1868 47.4343L16.2509 46.8251ZM17.1185 46.9513C16.8356 46.9152 16.553 46.8715 16.2657 46.827L16.172 47.4324C16.458 47.4767 16.7486 47.5216 17.041 47.5589L17.1185 46.9513ZM17.2673 46.9703L17.1185 46.9513L17.0409 47.5589L17.1897 47.5779L17.2673 46.9703ZM17.28 46.9722L17.2799 46.9722L17.1771 47.5761L17.1773 47.5761L17.28 46.9722ZM18.9156 47.1613C18.3677 47.111 17.8206 47.041 17.2675 46.9703L17.1898 47.578C17.7411 47.6484 18.299 47.7198 18.8595 47.7713L18.9156 47.1613ZM23.898 47.3293C22.2361 47.3765 20.5742 47.3137 18.9156 47.1613L18.8595 47.7713C20.5399 47.9257 22.2265 47.9896 23.9154 47.9417L23.898 47.3293ZM27.8442 47.1436C26.528 47.2233 25.2127 47.292 23.898 47.3293L23.9154 47.9417C25.2395 47.9041 26.5621 47.8349 27.8812 47.755L27.8442 47.1436ZM32.1473 46.6868C30.7075 46.8726 29.2797 47.0566 27.8442 47.1436L27.8812 47.755C29.341 47.6666 30.7893 47.4797 32.2257 47.2944L32.1473 46.6868ZM32.354 46.6602L32.1473 46.6868L32.2256 47.2944L32.4323 47.2677L32.354 46.6602ZM36.1939 45.6754C34.961 46.1736 33.6792 46.4895 32.354 46.6602L32.4323 47.2677C33.8032 47.0912 35.1366 46.7634 36.4234 46.2433L36.1939 45.6754ZM39.6913 43.7577C38.6009 44.5336 37.4342 45.1741 36.1939 45.6754L36.4234 46.2433C37.7085 45.724 38.9173 45.0602 40.0464 44.2569L39.6913 43.7577ZM45.0348 37.7502C43.7482 40.1872 41.9346 42.1615 39.6913 43.7577L40.0464 44.2569C42.3594 42.6111 44.2407 40.5665 45.5765 38.0362L45.0348 37.7502ZM46.4655 33.3601C46.2406 34.9085 45.7634 36.3702 45.0348 37.7502L45.5765 38.0362C46.3377 36.5945 46.8368 35.0658 47.0717 33.4481L46.4655 33.3601ZM46.6855 28.9638C46.7136 30.4428 46.6766 31.907 46.4655 33.3601L47.0717 33.4481C47.2896 31.9486 47.3264 30.4473 47.2979 28.9521L46.6855 28.9638ZM46.6652 28.1006C46.6727 28.391 46.68 28.6775 46.6855 28.9638L47.2979 28.9521C47.2925 28.6634 47.285 28.3749 47.2776 28.0849L46.6652 28.1006ZM46.6651 28.0971L46.6651 28.0983L47.2775 28.084L47.2775 28.0828L46.6651 28.0971ZM46.6651 28.0957L46.6651 28.0964L47.2775 28.0836L47.2775 28.0829L46.6651 28.0957ZM46.652 27.5701C46.6561 27.7474 46.6606 27.923 46.6651 28.0972L47.2775 28.0814C47.273 27.9071 47.2685 27.7322 47.2644 27.5558L46.652 27.5701ZM46.5389 26.5862L46.6496 27.4727L47.2574 27.3968L47.1467 26.5103L46.5389 26.5862ZM47.2719 27.5084L47.1467 26.5101L46.5389 26.5864L46.6641 27.5847L47.2719 27.5084ZM46.6747 25.6465C46.6764 25.9601 46.6731 26.4335 46.6695 26.83C46.6677 27.0279 46.6657 27.2061 46.6642 27.3348C46.6635 27.3992 46.6629 27.4512 46.6624 27.487C46.6622 27.505 46.6621 27.5189 46.6619 27.5283C46.6619 27.533 46.6618 27.5366 46.6618 27.539C46.6618 27.5402 46.6618 27.5411 46.6618 27.5417C46.6618 27.542 46.6618 27.5423 46.6618 27.5424C46.6618 27.5425 46.6618 27.5425 46.6618 27.5426C46.6618 27.5426 46.6618 27.5426 46.6618 27.5426C46.6618 27.5426 46.6618 27.5426 46.968 27.5466C47.2743 27.5505 47.2743 27.5505 47.2743 27.5505C47.2743 27.5505 47.2743 27.5505 47.2743 27.5504C47.2743 27.5504 47.2743 27.5503 47.2743 27.5503C47.2743 27.5501 47.2743 27.5499 47.2743 27.5496C47.2743 27.5489 47.2743 27.548 47.2743 27.5468C47.2744 27.5444 47.2744 27.5407 47.2745 27.536C47.2746 27.5265 47.2748 27.5125 47.275 27.4945C47.2754 27.4585 47.2761 27.4064 47.2768 27.3418C47.2783 27.2128 47.2802 27.0341 47.282 26.8356C47.2857 26.4393 47.289 25.9618 47.2873 25.6433L46.6747 25.6465ZM46.6523 23.8534C46.662 24.4525 46.6716 25.0496 46.6747 25.6465L47.2873 25.6433C47.2841 25.0425 47.2745 24.442 47.2648 23.8436L46.6523 23.8534ZM46.6507 23.7572L46.6523 23.8534L47.2648 23.8436L47.2633 23.7473L46.6507 23.7572ZM46.636 23.262C46.6422 23.4296 46.6481 23.5937 46.6507 23.7572L47.2633 23.7473C47.2605 23.5765 47.2543 23.4063 47.2482 23.2397L46.636 23.262ZM46.6272 23.0085C46.6299 23.0934 46.633 23.1781 46.636 23.262L47.2482 23.2397C47.2452 23.1556 47.2421 23.0724 47.2395 22.9893L46.6272 23.0085ZM46.6097 22.4436C46.6155 22.6318 46.6213 22.8201 46.6272 23.0085L47.2395 22.9893C47.2336 22.8012 47.2278 22.613 47.222 22.4247L46.6097 22.4436ZM46.5779 21.4282C46.5889 21.7665 46.5993 22.1049 46.6097 22.4436L47.222 22.4247C47.2116 22.0861 47.2012 21.7473 47.1902 21.4084L46.5779 21.4282ZM46.5664 21.1319C46.5706 21.2319 46.5748 21.3302 46.5779 21.4282L47.1902 21.4084C47.1869 21.3069 47.1827 21.2057 47.1785 21.1062L46.5664 21.1319ZM46.5541 20.8092C46.5574 20.9176 46.562 21.0257 46.5664 21.1319L47.1785 21.1062C47.174 20.9995 47.1696 20.8947 47.1663 20.7902L46.5541 20.8092ZM46.5294 19.8942C46.5367 20.1988 46.5446 20.5039 46.5541 20.8092L47.1663 20.7902C47.1569 20.4869 47.1491 20.1834 47.1418 19.8794L46.5294 19.8942ZM46.5181 19.4011C46.5217 19.5652 46.5254 19.7297 46.5294 19.8942L47.1418 19.8794C47.1378 19.7156 47.1342 19.5517 47.1305 19.3875L46.5181 19.4011ZM46.5038 18.786C46.509 18.9908 46.5135 19.1957 46.5181 19.4011L47.1305 19.3875C47.126 19.1822 47.1214 18.9764 47.1162 18.7706L46.5038 18.786ZM46.6076 18.9855C46.5856 18.9703 46.5641 18.9497 46.5459 18.9223C46.5283 18.8957 46.5054 18.8491 46.5038 18.7859L47.1162 18.7706C47.1124 18.6185 47.0153 18.5228 46.9565 18.482L46.6076 18.9855ZM46.4828 18.7328C46.4842 18.7417 46.4804 18.7221 46.4817 18.6958C46.4833 18.6626 46.4913 18.6354 46.4987 18.6175L47.0654 18.85C47.0799 18.8146 47.0912 18.7733 47.0935 18.7256C47.0955 18.6848 47.0899 18.6505 47.0884 18.6407L46.4828 18.7328ZM46.4799 18.7256C46.483 18.7379 46.4849 18.7451 46.4864 18.7521L47.0849 18.6214C47.0808 18.6027 47.0764 18.5854 47.0736 18.5745L46.4799 18.7256ZM46.4801 18.7263L46.4803 18.727L47.0732 18.5731L47.073 18.5723L46.4801 18.7263ZM46.4661 18.6661C46.4707 18.6899 46.4766 18.7125 46.4798 18.725L47.0733 18.5736C47.0693 18.5576 47.0682 18.5531 47.0677 18.5506L46.4661 18.6661ZM46.4668 18.6693C46.4765 18.717 46.4912 18.7567 46.4979 18.7746L47.0718 18.5604C47.0695 18.5542 47.0683 18.5507 47.0674 18.548C47.0666 18.5453 47.0667 18.5453 47.0671 18.5473L46.4668 18.6693ZM47.0911 18.6691C47.0926 18.3913 47.0935 18.1235 47.0919 17.8554L46.4793 17.8592C46.4809 18.1237 46.48 18.3885 46.4786 18.6659L47.0911 18.6691ZM47.0919 17.8554C47.0912 17.7548 47.0587 17.6708 47.0338 17.6194L46.4822 17.8857C46.4835 17.8884 46.4833 17.8886 46.4825 17.8859C46.4818 17.8833 46.4794 17.8741 46.4793 17.8593L47.0919 17.8554ZM46.4583 17.6894C46.4583 17.6894 46.4583 17.6894 46.4583 17.6894C46.4583 17.6895 46.4583 17.6894 46.4583 17.6894C46.4583 17.6894 46.4583 17.6894 46.4583 17.6894C46.4583 17.6894 46.4583 17.6894 46.4583 17.6895C46.6949 18.0523 47.0577 17.8157 47.0577 17.8156C47.0577 17.8156 47.0577 17.8156 47.0577 17.8156C47.0577 17.8156 47.0577 17.8156 47.0577 17.8156C47.0577 17.8156 47.0577 17.8156 47.0577 17.8156C47.0577 17.8156 47.0577 17.8157 47.0577 17.8156C47.0577 17.8157 47.0577 17.8156 47.0577 17.8156C47.0577 17.8157 47.0577 17.8156 47.0577 17.8156C47.0577 17.8157 47.0577 17.8156 47.0577 17.8156C47.0577 17.8156 47.0577 17.8156 47.0577 17.8156C47.0577 17.8156 47.0577 17.8156 47.0577 17.8156C47.0577 17.8156 47.0577 17.8156 47.0577 17.8156C47.0577 17.8156 47.0577 17.8156 47.0577 17.8156C47.0577 17.8156 47.0577 17.8156 47.0577 17.8156V17.8156C47.0577 17.8156 47.0577 17.8156 47.0577 17.8156C47.0577 17.8156 47.0577 17.8156 47.0577 17.8156C47.0578 17.8153 47.0577 17.816 47.0577 17.8156C47.0577 17.8156 47.0577 17.8156 47.0577 17.8156C47.0577 17.8156 47.0577 17.8156 47.0577 17.8156C47.0577 17.8156 47.0577 17.8156 47.0577 17.8156C47.0577 17.8156 47.0577 17.8156 47.0577 17.8156C47.0577 17.8156 47.0577 17.8156 47.0577 17.8156C47.0577 17.8156 46.6949 18.0522 46.4583 17.6894C46.4583 17.6894 46.4583 17.6894 46.4583 17.6894C46.4583 17.6894 46.4583 17.6894 46.4583 17.6894C46.4583 17.6894 46.4583 17.6894 46.4583 17.6894C46.4583 17.6894 46.4583 17.6894 46.4583 17.6894C46.4583 17.6894 46.4583 17.6894 46.4583 17.6894C46.4583 17.6894 46.4583 17.6894 46.4583 17.6894L47.0577 17.8156C47.0577 17.8156 47.0577 17.8156 47.0577 17.8156C47.0577 17.8156 47.0577 17.8156 47.0577 17.8156C47.0577 17.8156 47.0577 17.8156 47.0577 17.8156V17.8156C47.0577 17.8156 47.0577 17.8156 47.0577 17.8156C46.8211 17.4528 46.4583 17.6894 46.4583 17.6894C46.4583 17.6894 46.4583 17.6894 46.4583 17.6894C46.4583 17.6894 46.4583 17.6894 46.4583 17.6894C46.4583 17.6894 46.4583 17.6894 46.4583 17.6894C46.4583 17.6894 46.4583 17.6894 46.4583 17.6894C46.4583 17.6894 46.4583 17.6894 46.4583 17.6894C46.4583 17.6894 46.4583 17.6894 46.4583 17.6894C46.4583 17.6894 46.4583 17.6894 46.4583 17.6894C46.4583 17.6894 46.4583 17.6894 46.4583 17.6894V17.6894C46.4583 17.6894 46.4583 17.6894 46.4583 17.6894C46.4583 17.6894 46.4583 17.6894 46.4583 17.6894C46.4583 17.6894 46.4583 17.6894 46.4583 17.6894C46.4583 17.6894 46.4583 17.6894 46.4583 17.6894C46.4583 17.6895 46.4583 17.6894 46.4583 17.6894C46.4582 17.6898 46.4584 17.6891 46.4583 17.6894C46.4583 17.6895 46.4583 17.6894 46.4583 17.6894C46.4583 17.6894 46.4583 17.6894 46.4583 17.6894C46.4583 17.6894 46.4583 17.6894 46.4583 17.6895C46.4583 17.6894 46.8211 17.4528 47.0577 17.8156C47.0577 17.8156 47.0577 17.8156 47.0577 17.8156C47.0577 17.8156 47.0577 17.8156 47.0577 17.8156C47.0577 17.8156 47.0577 17.8156 47.0577 17.8156C47.0577 17.8156 47.0577 17.8156 47.0577 17.8156C47.0577 17.8156 47.0577 17.8156 47.0577 17.8156C47.0577 17.8156 47.0577 17.8156 47.0577 17.8156L46.4583 17.6894ZM46.459 17.7558C46.4603 17.7635 46.4562 17.7435 46.4574 17.7163C46.4589 17.6827 46.4669 17.6552 46.4742 17.6373L47.0418 17.8677C47.0561 17.8326 47.0673 17.7911 47.0694 17.7433C47.0712 17.7019 47.0653 17.6675 47.0636 17.657L46.459 17.7558ZM46.4603 17.7694C46.4637 17.78 46.4649 17.7838 46.4658 17.787L47.0568 17.6258C47.0515 17.6065 47.0459 17.5894 47.043 17.5803L46.4603 17.7694ZM46.4415 17.7021C46.4479 17.7323 46.4572 17.76 46.4603 17.7694L47.043 17.5803C47.0406 17.5731 47.0398 17.5706 47.0393 17.5688C47.0389 17.5674 47.0397 17.5699 47.0407 17.5747L46.4415 17.7021ZM46.4421 17.7048C46.4554 17.7646 46.479 17.8117 46.4936 17.8376L47.0274 17.5371C47.029 17.54 47.0308 17.5435 47.0327 17.548C47.0345 17.5523 47.0375 17.5604 47.0401 17.572L46.4421 17.7048ZM47.0667 17.6802C47.0634 17.5407 47.0603 17.4018 47.0572 17.2631L46.4448 17.2767C46.4479 17.4154 46.451 17.5547 46.4543 17.6946L47.0667 17.6802ZM47.0572 17.2625L47.0572 17.2619L46.4448 17.2767L46.4448 17.2773L47.0572 17.2625ZM47.0572 17.2631L47.0572 17.2624L46.4447 17.2748L46.4448 17.2755L47.0572 17.2631ZM47.0572 17.2611L47.0572 17.2605L46.4448 17.2755L46.4448 17.2761L47.0572 17.2611ZM47.0572 17.2612C47.0463 16.7735 47.0355 16.2883 47.0171 15.8029L46.4049 15.8262C46.4232 16.3059 46.4339 16.7863 46.4447 17.2748L47.0572 17.2612ZM47.0171 15.8029C47.0046 15.4742 46.9797 15.1447 46.9415 14.8173L46.333 14.8883C46.3693 15.1992 46.393 15.5127 46.4049 15.8262L47.0171 15.8029ZM46.9415 14.8173C46.9361 14.7718 46.9309 14.7261 46.9256 14.6801L46.317 14.75C46.3223 14.7959 46.3276 14.8421 46.333 14.8883L46.9415 14.8173ZM46.9256 14.6801C46.8854 14.3295 46.843 13.9583 46.7609 13.594L46.1633 13.7287C46.237 14.0555 46.2761 14.3938 46.317 14.75L46.9256 14.6801ZM46.7609 13.594C46.6298 13.0124 46.4661 12.4396 46.3038 11.8771L45.7152 12.0468C45.8779 12.6108 46.0367 13.1672 46.1633 13.7287L46.7609 13.594ZM46.3038 11.8771C46.2442 11.6703 46.1627 11.4728 46.0905 11.297L45.5239 11.5297C45.5982 11.7106 45.6664 11.8774 45.7152 12.0468L46.3038 11.8771ZM46.0905 11.297C46.066 11.2373 46.0426 11.1801 46.0202 11.1236L45.4507 11.3493C45.4747 11.4099 45.4996 11.4707 45.5239 11.5297L46.0905 11.297ZM45.4361 11.3016C45.4354 11.298 45.4348 11.2951 45.4345 11.2934C45.4342 11.2918 45.4339 11.2904 45.434 11.2907C45.434 11.2907 45.434 11.2907 45.434 11.2907C45.434 11.2907 45.434 11.2907 45.434 11.2907C45.434 11.2908 45.434 11.2908 45.434 11.2909C45.434 11.291 45.434 11.2912 45.4341 11.2914C45.4342 11.2918 45.4343 11.2926 45.4345 11.2935C45.4348 11.2952 45.4354 11.2982 45.4362 11.3018L46.0347 11.1712C46.0354 11.1747 46.036 11.1776 46.0363 11.1793C46.0366 11.1809 46.0369 11.1823 46.0368 11.182C46.0368 11.182 46.0368 11.182 46.0368 11.182C46.0368 11.182 46.0368 11.182 46.0368 11.182C46.0368 11.182 46.0368 11.1819 46.0368 11.1819C46.0368 11.1818 46.0368 11.1816 46.0367 11.1813C46.0366 11.1809 46.0365 11.1802 46.0363 11.1793C46.036 11.1775 46.0354 11.1746 46.0346 11.171L45.4361 11.3016ZM45.4299 11.2252L45.4293 11.2251L46.0415 11.2474C46.0425 11.2189 46.0428 11.191 46.038 11.1512L45.4299 11.2252ZM45.4441 11.3063C45.4744 11.3664 45.5161 11.4037 45.5221 11.4095L45.9458 10.967C45.9411 10.9625 45.9482 10.969 45.9565 10.9786C45.9676 10.9915 45.9802 11.0089 45.9911 11.0306L45.4441 11.3063ZM45.6096 10.8936C45.6576 10.8726 45.7441 10.852 45.8403 10.8915C45.9273 10.9272 45.9693 10.9912 45.9843 11.0178L45.4509 11.3191C45.4696 11.3522 45.5158 11.4205 45.6076 11.4582C45.7086 11.4997 45.8005 11.4787 45.8549 11.4549L45.6096 10.8936ZM45.7505 11.4624C45.6375 11.4761 45.5589 11.4237 45.5284 11.3988C45.4935 11.3702 45.4744 11.3406 45.4654 11.3246L45.9991 11.024C45.9836 10.9963 45.9577 10.9585 45.9164 10.9247C45.8795 10.8945 45.7949 10.8399 45.6767 10.8542L45.7505 11.4624ZM45.4079 11.1873C45.408 11.188 45.409 11.196 45.4105 11.2047C45.4117 11.212 45.4153 11.2326 45.4237 11.2572L46.0035 11.0594C46.0076 11.0715 46.0101 11.0815 46.0115 11.0876C46.013 11.094 46.0139 11.0991 46.0144 11.1021C46.0153 11.1071 46.0158 11.1112 46.0154 11.108L45.4079 11.1873ZM45.4101 11.2003C45.409 11.1946 45.4084 11.1903 45.4081 11.1888C45.4079 11.1873 45.4078 11.1863 45.408 11.1877L46.0153 11.1076C46.0153 11.1074 46.0138 11.0949 46.0111 11.0815L45.4101 11.2003ZM45.4273 11.2559C45.4211 11.2411 45.4172 11.2287 45.415 11.2205C45.4126 11.2121 45.4111 11.2052 45.4102 11.2007L46.011 11.081C46.0091 11.0717 46.004 11.0469 45.9917 11.0178L45.4273 11.2559ZM45.4131 11.2433C45.4473 11.3187 45.4977 11.3609 45.5256 11.3818L45.8934 10.8919C45.8943 10.8926 45.9096 10.9038 45.9266 10.9227C45.9463 10.9445 45.9609 10.968 45.971 10.9902L45.4131 11.2433ZM45.5847 10.8448C45.6428 10.8193 45.7447 10.8002 45.8481 10.8579C45.9298 10.9035 45.9622 10.9715 45.9695 10.987L45.4146 11.2465C45.4259 11.2706 45.4627 11.3444 45.5496 11.3928C45.6581 11.4534 45.7659 11.4343 45.8311 11.4057L45.5847 10.8448ZM45.7321 11.413C45.6165 11.4293 45.5361 11.3755 45.5077 11.353C45.4727 11.3253 45.4529 11.2961 45.443 11.2789L45.9728 10.9716C45.9562 10.9429 45.9295 10.9057 45.8881 10.8728C45.8533 10.8452 45.7669 10.7894 45.6465 10.8064L45.7321 11.413ZM45.366 11.1114C45.3763 11.1423 45.3882 11.178 45.4015 11.2146L45.9771 11.0047C45.967 10.9772 45.9577 10.9493 45.947 10.9173L45.366 11.1114ZM45.3095 10.9603C45.3282 10.9997 45.3435 11.0441 45.366 11.1114L45.947 10.9173C45.9266 10.8563 45.9002 10.776 45.8628 10.6974L45.3095 10.9603ZM45.0523 10.4092C45.1368 10.592 45.2222 10.7766 45.3095 10.9603L45.8628 10.6974C45.7771 10.517 45.6931 10.3353 45.6083 10.152L45.0523 10.4092ZM45.0573 10.4196L45.0575 10.4199L45.6031 10.1413L45.6029 10.141L45.0573 10.4196ZM44.4047 9.08308C44.6366 9.51064 44.842 9.95455 45.0521 10.4088L45.6081 10.1517C45.3994 9.7004 45.186 9.23861 44.9431 8.79098L44.4047 9.08308ZM41.6361 5.64877C42.7797 6.61034 43.691 7.76749 44.4047 9.08308L44.9431 8.79098C44.1964 7.41448 43.238 6.1954 42.0303 5.1799L41.6361 5.64877ZM38.033 3.44315C39.3391 4.01503 40.5489 4.73464 41.6361 5.64877L42.0303 5.1799C40.8923 4.22304 39.6308 3.47402 38.2787 2.88199L38.033 3.44315ZM33.3421 1.99879C34.958 2.32886 36.5284 2.78438 38.033 3.44315L38.2787 2.88199C36.7257 2.20204 35.1122 1.73514 33.4647 1.3986L33.3421 1.99879ZM29.7496 1.48499C30.959 1.59786 32.1575 1.75683 33.3421 1.99879L33.4647 1.3986C32.2527 1.15102 31.0312 0.989346 29.8065 0.875057L29.7496 1.48499ZM23.8564 1.35487C25.8224 1.26129 27.7885 1.30199 29.7496 1.48499L29.8065 0.875057C27.816 0.689306 25.8212 0.648073 23.8273 0.742979L23.8564 1.35487ZM19.7429 1.6699C21.1112 1.52847 22.4839 1.4202 23.8564 1.35487L23.8273 0.742979C22.4421 0.80891 21.058 0.918119 19.6799 1.06056L19.7429 1.6699ZM13.1368 2.93176C15.2959 2.30284 17.5037 1.90134 19.7429 1.6699L19.6799 1.06056C17.4097 1.29521 15.1651 1.70291 12.9655 2.34362L13.1368 2.93176ZM7.85191 5.10646C9.50776 4.14654 11.2893 3.46991 13.1368 2.93176L12.9655 2.34362C11.0885 2.89039 9.25691 3.58389 7.54468 4.57649L7.85191 5.10646ZM4.6822 7.61663C5.58512 6.59803 6.6662 5.79384 7.85191 5.10646L7.54468 4.57649C6.32009 5.2864 5.18199 6.12932 4.22379 7.21028L4.6822 7.61663ZM3.42247 9.49585C3.76547 8.81376 4.17885 8.18447 4.6822 7.61663L4.22379 7.21028C3.68134 7.82222 3.2392 8.49677 2.87519 9.22063L3.42247 9.49585ZM2.23693 13.1232C2.47796 11.859 2.84744 10.6393 3.42247 9.49585L2.87519 9.22063C2.26882 10.4264 1.88411 11.7029 1.63519 13.0085L2.23693 13.1232ZM1.80544 15.7305C1.93945 14.8549 2.07252 13.9855 2.23693 13.1232L1.63519 13.0085C1.46833 13.8836 1.33363 14.764 1.1999 15.6378L1.80544 15.7305ZM1.69366 16.4564C1.73139 16.2143 1.76845 15.9722 1.80544 15.7305L1.1999 15.6378C1.1629 15.8797 1.12597 16.121 1.08838 16.3621L1.69366 16.4564ZM1.5475 17.5118C1.59394 17.1544 1.63941 16.8044 1.69366 16.4564L1.08838 16.3621C1.03273 16.719 0.986283 17.0768 0.940022 17.4329L1.5475 17.5118ZM1.47664 18.0487C1.50119 17.8684 1.52446 17.6892 1.5475 17.5118L0.940022 17.4329C0.916943 17.6106 0.893909 17.7879 0.869656 17.966L1.47664 18.0487ZM1.45738 18.1977C1.4637 18.1492 1.47023 18.0992 1.47699 18.046L0.8693 17.9687C0.862683 18.0208 0.85628 18.0699 0.849944 18.1184L1.45738 18.1977ZM1.40333 18.6463C1.42148 18.4729 1.4386 18.3416 1.45738 18.1977L0.849944 18.1184C0.83114 18.2625 0.813111 18.4006 0.794073 18.5826L1.40333 18.6463ZM0.816848 18.3766C0.809136 18.4439 0.801172 18.5134 0.794008 18.5832L1.4034 18.6457C1.41013 18.5801 1.41767 18.5142 1.42545 18.4463L0.816848 18.3766ZM0.854722 17.9965C0.846234 18.1196 0.832043 18.2439 0.816848 18.3766L1.42545 18.4463C1.44038 18.316 1.45626 18.1779 1.46586 18.0386L0.854722 17.9965ZM1.15724 18.3238L1.16248 18.3238L1.1581 17.7112L1.15286 17.7113L1.15724 18.3238ZM1.06884 18.3279C1.07855 18.3257 1.09221 18.3243 1.15722 18.3238L1.15289 17.7113C1.1015 17.7116 1.0183 17.7109 0.931157 17.731L1.06884 18.3279ZM1.31592 19.2699C1.30631 18.8672 1.30629 18.4506 1.30629 18.0295H0.693707C0.693707 18.4492 0.693692 18.8732 0.703506 19.2845L1.31592 19.2699ZM12.4109 8.86555L12.4106 8.87814L13.023 8.89235L13.0233 8.87976L12.4109 8.86555ZM12.4113 8.84767L12.4109 8.86627L13.0233 8.87904L13.0237 8.86044L12.4113 8.84767ZM12.4156 7.73455C12.4156 8.1142 12.4156 8.47139 12.4112 8.85054L13.0238 8.85756C13.0282 8.47435 13.0282 8.11372 13.0282 7.73455H12.4156ZM12.7697 7.42861C12.7552 7.42845 12.7386 7.42826 12.7219 7.42826V8.04084C12.7345 8.04084 12.7477 8.04099 12.7627 8.04116L12.7697 7.42861ZM12.7664 7.42859H12.7662V8.04118H12.7664V7.42859ZM12.8501 7.42827C12.8273 7.42919 12.8032 7.42899 12.7699 7.42861L12.763 8.04116C12.7936 8.0415 12.8337 8.04203 12.8749 8.04035L12.8501 7.42827ZM14.3981 7.36804C13.8824 7.38768 13.3662 7.40734 12.8501 7.42827L12.8749 8.04035C13.3902 8.01946 13.9056 7.99983 14.4214 7.98018L14.3981 7.36804ZM14.4005 7.36796L14.4003 7.36796L14.4191 7.98026L14.4193 7.98025L14.4005 7.36796ZM18.0012 7.21471C16.8018 7.27648 15.6012 7.32222 14.3982 7.36803L14.4215 7.98018C15.6238 7.93438 16.8285 7.88851 18.0327 7.82649L18.0012 7.21471ZM23.1632 7.06617C21.4381 7.05647 19.7169 7.12635 18.0012 7.21471L18.0327 7.82649C19.7451 7.7383 21.4524 7.66915 23.1598 7.67874L23.1632 7.06617ZM28.0448 7.48086C26.4272 7.18662 24.7952 7.07534 23.1632 7.06617L23.1598 7.67874C24.7669 7.68778 26.3618 7.79736 27.9352 8.08356L28.0448 7.48086ZM32.1255 8.80022C30.828 8.13633 29.4526 7.73694 28.0448 7.48086L27.9352 8.08356C29.3025 8.33227 30.6168 8.71639 31.8465 9.34557L32.1255 8.80022ZM35.2292 11.2149C34.3505 10.2077 33.3129 9.40777 32.1255 8.80022L31.8465 9.34557C32.9668 9.9188 33.9418 10.6711 34.7675 11.6176L35.2292 11.2149ZM37.8078 16.182C37.3234 14.339 36.4938 12.6645 35.2292 11.2149L34.7675 11.6176C35.9631 12.9881 36.7521 14.5752 37.2153 16.3377L37.8078 16.182ZM38.2453 20.6322C38.3287 19.1274 38.1916 17.6424 37.8078 16.182L37.2153 16.3377C37.582 17.7329 37.7137 19.1538 37.6337 20.5983L38.2453 20.6322ZM37.2405 25.1418C37.8382 23.6958 38.1591 22.1887 38.2453 20.6322L37.6337 20.5983C37.5509 22.0917 37.2436 23.5306 36.6744 24.9078L37.2405 25.1418ZM34.2406 29.401C35.5897 28.2237 36.5633 26.7803 37.2405 25.1418L36.6744 24.9078C36.0287 26.4701 35.107 27.8318 33.8378 28.9395L34.2406 29.401ZM30.4276 31.517C31.8353 31.0671 33.1184 30.3804 34.2406 29.401L33.8378 28.9395C32.7851 29.8582 31.5778 30.5063 30.2411 30.9335L30.4276 31.517ZM27.5545 32.0363C28.4913 31.9292 29.493 31.8158 30.4276 31.517L30.2411 30.9335C29.3736 31.2108 28.433 31.3193 27.485 31.4276L27.5545 32.0363ZM27.3517 32.0595C27.4191 32.0517 27.4866 32.044 27.5545 32.0363L27.485 31.4276C27.4171 31.4354 27.3493 31.4431 27.2816 31.451L27.3517 32.0595ZM22.3332 32.2472C24.0156 32.2813 25.664 32.2541 27.3517 32.0595L27.2816 31.451C25.6321 31.6411 24.0141 31.6686 22.3456 31.6348L22.3332 32.2472ZM19.4296 31.8318C19.4155 32.1378 19.4155 32.1378 19.4155 32.1378C19.4155 32.1378 19.4156 32.1378 19.4156 32.1378C19.4157 32.1378 19.4157 32.1378 19.4159 32.1378C19.4161 32.1378 19.4165 32.1378 19.4169 32.1378C19.4179 32.1379 19.4193 32.1379 19.4212 32.138C19.4249 32.1382 19.4304 32.1385 19.4377 32.1388C19.4522 32.1395 19.4736 32.1404 19.5012 32.1417C19.5563 32.1442 19.6361 32.1477 19.7349 32.1521C19.9325 32.1608 20.206 32.1727 20.5098 32.1851C21.1164 32.2099 21.8467 32.2374 22.3332 32.2472L22.3456 31.6348C21.8662 31.6251 21.1417 31.5979 20.5349 31.573C20.2319 31.5606 19.959 31.5488 19.7619 31.5401C19.6634 31.5358 19.5838 31.5322 19.5289 31.5297C19.5014 31.5285 19.4801 31.5275 19.4657 31.5268C19.4584 31.5265 19.4529 31.5263 19.4493 31.5261C19.4474 31.526 19.446 31.5259 19.4451 31.5259C19.4446 31.5259 19.4443 31.5259 19.444 31.5259C19.4439 31.5258 19.4438 31.5258 19.4438 31.5258C19.4438 31.5258 19.4437 31.5258 19.4437 31.5258C19.4437 31.5258 19.4437 31.5258 19.4296 31.8318ZM19.353 32.1381H19.4296V31.5255H19.353V32.1381ZM19.2523 32.1289L19.3196 32.1363L19.3865 31.5273L19.3192 31.5199L19.2523 32.1289ZM19.5889 34.8079C19.5854 33.8078 19.5836 32.809 19.592 31.827L18.9794 31.8218C18.971 32.8077 18.9728 33.8096 18.9763 34.81L19.5889 34.8079ZM19.6057 39.436C19.5999 37.8933 19.5942 36.3506 19.5889 34.8079L18.9763 34.81C18.9816 36.3528 18.9874 37.8955 18.9931 39.4383L19.6057 39.436ZM19.6129 41.3976C19.6105 40.7437 19.6081 40.0899 19.6057 39.436L18.9931 39.4383C18.9955 40.0921 18.9979 40.746 19.0003 41.3999L19.6129 41.3976ZM19.6129 41.4533C19.613 41.4344 19.613 41.416 19.6129 41.3976L19.0003 41.3999C19.0004 41.4165 19.0004 41.4333 19.0003 41.4528L19.6129 41.4533ZM19.6129 41.4749L19.6129 41.4532L19.0003 41.4529L19.0003 41.4746L19.6129 41.4749ZM12.7157 41.7811H19.3066V41.1685H12.7157V41.7811ZM12.4094 40.411L12.4094 41.4748H13.022L13.022 40.411H12.4094ZM12.4095 8.952C12.4094 19.4383 12.4094 29.9247 12.4094 40.411H13.022C13.022 29.9247 13.022 19.4383 13.0221 8.952L12.4095 8.952ZM12.4106 8.87804C12.4101 8.89969 12.4095 8.92554 12.4095 8.95198L13.0221 8.95202C13.0221 8.93396 13.0225 8.9153 13.023 8.89245L12.4106 8.87804ZM46.6651 28.0995L46.6652 28.101L47.2776 28.0845L47.2775 28.0829L46.6651 28.0995ZM46.6474 27.4459L46.6521 27.5741L47.2643 27.5518L47.2596 27.4237L46.6474 27.4459Z" fill="#3F4654" mask="url(#path-3-inside-2_845_1402)"/>
<mask id="path-5-inside-3_845_1402" fill="white">
<path d="M28.1566 24.7997C27.5304 25.1161 26.8687 25.2782 26.1879 25.3741C24.8729 25.5594 23.5548 25.5091 22.2355 25.4328C21.3204 25.3799 20.4044 25.3435 19.4888 25.2996C19.4487 25.2977 19.4087 25.2956 19.3616 25.2932C19.3616 21.5049 19.3616 17.7227 19.3616 13.9191C19.5448 13.9191 19.7231 13.9206 19.9013 13.9189C21.0015 13.9082 22.1019 13.8806 23.2019 13.8904C24.2826 13.8999 25.3561 13.9987 26.4089 14.2693C27.2166 14.4769 27.9637 14.8048 28.6098 15.3406C29.0976 15.7451 29.4982 16.2268 29.8219 16.7712C30.4902 17.8952 30.7903 19.1162 30.7519 20.42C30.7247 21.3438 30.511 22.2215 30.0409 23.0245C29.5886 23.7969 28.9675 24.3937 28.1566 24.7997Z"/>
</mask>
<path d="M28.1566 24.7997C27.5304 25.1161 26.8687 25.2782 26.1879 25.3741C24.8729 25.5594 23.5548 25.5091 22.2355 25.4328C21.3204 25.3799 20.4044 25.3435 19.4888 25.2996C19.4487 25.2977 19.4087 25.2956 19.3616 25.2932C19.3616 21.5049 19.3616 17.7227 19.3616 13.9191C19.5448 13.9191 19.7231 13.9206 19.9013 13.9189C21.0015 13.9082 22.1019 13.8806 23.2019 13.8904C24.2826 13.8999 25.3561 13.9987 26.4089 14.2693C27.2166 14.4769 27.9637 14.8048 28.6098 15.3406C29.0976 15.7451 29.4982 16.2268 29.8219 16.7712C30.4902 17.8952 30.7903 19.1162 30.7519 20.42C30.7247 21.3438 30.511 22.2215 30.0409 23.0245C29.5886 23.7969 28.9675 24.3937 28.1566 24.7997Z" fill="#575BFE" stroke="#3F4654" stroke-width="0.612585" mask="url(#path-5-inside-3_845_1402)"/>
<mask id="path-6-inside-4_845_1402" fill="white">
<path d="M11.5464 9.32642C12.0355 9.34771 12.5225 9.3804 13.0095 9.41296C13.8399 9.46848 14.6703 9.52453 15.5007 9.57915C16.0518 9.6154 16.603 9.64954 17.1541 9.6847C17.1972 9.68745 17.2403 9.69083 17.2988 9.69501C17.2864 9.84697 17.2763 9.99018 17.2627 10.133C17.2414 10.3577 17.2176 10.5821 17.1951 10.8066C17.1791 10.9663 17.1636 11.1259 17.1475 11.3062C17.1166 11.6781 17.0861 12.0293 17.0536 12.3911C16.9955 13.0132 16.9389 13.6247 16.8831 14.2362C16.8235 14.8891 16.7651 15.5421 16.7053 16.195C16.6363 16.9472 16.5664 17.6992 16.4969 18.4514C16.4282 19.1953 16.3607 19.9393 16.2902 20.683C16.2582 21.0202 16.2061 21.3573 16.3367 21.6859C16.5144 22.4944 16.6912 23.3032 16.8702 24.1114C17.2335 25.752 17.9304 27.3923 18.2931 29.0331C18.3073 29.0971 18.3119 29.1646 18.3121 29.2305C18.3161 30.3812 17.9866 31.5319 17.9912 32.6936C17.9954 33.7227 17.9972 34.741 18.0006 35.7593C18.0081 37.9954 18.0163 40.2314 18.0242 42.4675C18.0243 42.4919 18.0242 42.5162 18.0242 42.5449C15.8625 42.5449 13.7077 42.5449 11.5425 42.5449C11.5425 42.4989 11.5425 42.4584 11.5425 42.4179C11.5425 31.4244 11.5425 20.431 11.5426 9.43746C11.5426 9.40422 11.5437 9.37099 11.5464 9.32642Z"/>
</mask>
<path d="M11.5464 9.32642C12.0355 9.34771 12.5225 9.3804 13.0095 9.41296C13.8399 9.46848 14.6703 9.52453 15.5007 9.57915C16.0518 9.6154 16.603 9.64954 17.1541 9.6847C17.1972 9.68745 17.2403 9.69083 17.2988 9.69501C17.2864 9.84697 17.2763 9.99018 17.2627 10.133C17.2414 10.3577 17.2176 10.5821 17.1951 10.8066C17.1791 10.9663 17.1636 11.1259 17.1475 11.3062C17.1166 11.6781 17.0861 12.0293 17.0536 12.3911C16.9955 13.0132 16.9389 13.6247 16.8831 14.2362C16.8235 14.8891 16.7651 15.5421 16.7053 16.195C16.6363 16.9472 16.5664 17.6992 16.4969 18.4514C16.4282 19.1953 16.3607 19.9393 16.2902 20.683C16.2582 21.0202 16.2061 21.3573 16.3367 21.6859C16.5144 22.4944 16.6912 23.3032 16.8702 24.1114C17.2335 25.752 17.9304 27.3923 18.2931 29.0331C18.3073 29.0971 18.3119 29.1646 18.3121 29.2305C18.3161 30.3812 17.9866 31.5319 17.9912 32.6936C17.9954 33.7227 17.9972 34.741 18.0006 35.7593C18.0081 37.9954 18.0163 40.2314 18.0242 42.4675C18.0243 42.4919 18.0242 42.5162 18.0242 42.5449C15.8625 42.5449 13.7077 42.5449 11.5425 42.5449C11.5425 42.4989 11.5425 42.4584 11.5425 42.4179C11.5425 31.4244 11.5425 20.431 11.5426 9.43746C11.5426 9.40422 11.5437 9.37099 11.5464 9.32642Z" fill="#FEE528" stroke="#3F4654" stroke-width="0.612585" mask="url(#path-6-inside-4_845_1402)"/>
</svg>
