<svg width="986" height="320" viewBox="0 0 986 320" fill="none" xmlns="http://www.w3.org/2000/svg">
<path d="M389.208 266.52C401.24 266.52 410.883 263.277 418.136 256.792C425.475 250.221 429.144 240.365 429.144 227.224C429.144 214.083 425.005 203.629 416.728 195.864C408.536 188.099 398.381 184.216 386.264 184.216C378.499 184.216 371.757 184.429 366.04 184.856V265.496C371.587 266.179 379.309 266.52 389.208 266.52ZM386.264 178.584C400.344 178.584 412.12 182.979 421.592 191.768C431.064 200.472 435.8 212.333 435.8 227.352C435.8 234.947 434.563 241.688 432.088 247.576C429.699 253.379 426.371 258.029 422.104 261.528C413.315 268.611 402.349 272.152 389.208 272.152C380.589 272.152 370.819 271.683 359.896 270.744V179.48C368.6 178.883 377.389 178.584 386.264 178.584ZM482.156 271H476.396V241.304L445.036 187.928H452.076L476.268 229.144C478.145 232.899 479.212 234.904 479.468 235.16C479.98 234.051 481.047 232.088 482.668 229.272L506.86 187.928H513.516L482.156 241.56V271ZM530.36 271V187.416H533.176L587.704 250.136C589.667 252.355 591.459 254.573 593.08 256.792C594.787 258.925 595.683 260.035 595.768 260.12C595.597 258.072 595.512 254.061 595.512 248.088V187.928H601.4V271.512H598.584L543.032 207.768L535.992 199.192C536.163 200.899 536.248 204.909 536.248 211.224V271H530.36ZM636.206 242.2L624.302 271H618.286L653.102 187.416H656.558L691.63 271H685.102L673.07 242.2H636.206ZM654.51 196.888C653.23 200.728 652.078 203.928 651.054 206.488L638.254 237.208H671.022L658.35 206.616C656.387 201.837 655.107 198.595 654.51 196.888ZM747.013 266.648H743.557L719.365 207.896C718.341 205.592 717.317 202.904 716.293 199.832C716.293 199.917 716.208 200.387 716.037 201.24C715.952 202.093 715.824 203.245 715.653 204.696C715.482 206.061 715.312 207.213 715.141 208.152L705.541 271H699.781L713.349 187.416H716.805L742.661 248.728C744.709 253.848 745.733 256.536 745.733 256.792C746.33 255 747.482 252.355 749.189 248.856L777.989 187.416H781.445L794.117 271H787.973L778.885 207.896C778.288 203.715 777.989 200.941 777.989 199.576L774.277 208.024L747.013 266.648ZM816.11 271V187.928H821.998V271H816.11ZM917.375 266.904C910.975 270.488 902.058 272.28 890.623 272.28C879.274 272.28 869.247 268.184 860.543 259.992C851.924 251.8 847.615 241.645 847.615 229.528C847.615 217.325 851.37 207.128 858.879 198.936C866.474 190.744 876.244 186.648 888.191 186.648C897.834 186.648 907.263 188.141 916.479 191.128L914.943 195.992C906.068 193.261 896.895 191.896 887.423 191.896C877.951 191.896 869.972 195.523 863.487 202.776C857.087 209.944 853.887 218.776 853.887 229.272C853.887 239.683 857.599 248.557 865.023 255.896C872.532 263.235 881.194 266.904 891.007 266.904C900.82 266.904 908.97 265.539 915.455 262.808L917.375 266.904ZM955.128 191.512C950.52 191.512 946.765 192.621 943.864 194.84C940.963 197.059 939.512 200.173 939.512 204.184C939.512 208.792 941.432 212.931 945.272 216.6C948.003 219.245 951.501 222.061 955.768 225.048C960.12 227.949 963.107 230.04 964.728 231.32C966.349 232.6 968.312 234.349 970.616 236.568C974.797 240.749 976.888 245.571 976.888 251.032C976.888 258.115 974.499 263.491 969.72 267.16C965.027 270.744 958.413 272.536 949.88 272.536C941.432 272.536 934.349 270.317 928.632 265.88L931.704 261.4C937.507 265.325 943.651 267.288 950.136 267.288C956.621 267.288 961.656 265.923 965.24 263.192C968.909 260.461 970.744 256.621 970.744 251.672C970.744 247.405 968.909 243.48 965.24 239.896C962.68 237.336 959.224 234.563 954.872 231.576C950.605 228.589 947.619 226.456 945.912 225.176C944.205 223.811 942.2 222.019 939.896 219.8C935.544 215.448 933.368 210.413 933.368 204.696C933.368 198.979 935.373 194.499 939.384 191.256C943.48 188.013 949.112 186.392 956.28 186.392C963.448 186.392 969.891 187.8 975.608 190.616L973.432 195.352C968.141 192.792 962.04 191.512 955.128 191.512Z" fill="#FFCCB2"/>
<path d="M367.696 66.288C367.696 68.2507 367.525 69.232 367.184 69.232C366.672 69.232 366.075 69.1893 365.392 69.104C364.795 68.9333 364.027 68.848 363.088 68.848H342.608L326.736 68.72C326.224 68.72 324.304 68.848 320.976 69.104L318.032 69.36L317.776 72.816C317.691 74.096 317.648 76.1013 317.648 78.832C317.648 80.1973 317.733 81.9893 317.904 84.208C318.075 86.256 318.16 87.7493 318.16 88.688V93.808C318.16 95.1733 318.203 96.24 318.288 97.008C319.056 97.0933 320.208 97.136 321.744 97.136H326.864C327.376 97.136 328.4 97.0507 329.936 96.88C332.155 96.7093 334.075 96.624 335.696 96.624C336.379 96.624 338.768 96.752 342.864 97.008L345.68 97.136C346.363 97.136 347.344 97.0933 348.624 97.008C349.904 96.8373 351.141 96.752 352.336 96.752L356.56 96.88C358.779 97.0507 360.315 97.136 361.168 97.136C362.107 97.136 362.747 97.0933 363.088 97.008L363.856 96.88C364.453 96.88 364.88 97.0933 365.136 97.52C365.392 97.8613 365.477 98.2027 365.392 98.544C365.307 99.1413 365.264 99.9093 365.264 100.848C365.264 101.701 365.221 102.469 365.136 103.152C365.051 103.835 364.923 104.261 364.752 104.432C364.581 104.517 364.069 104.56 363.216 104.56L358.096 104.048C351.696 103.451 347.515 103.152 345.552 103.152C338.299 103.152 332.965 103.28 329.552 103.536C328.187 103.707 326.693 103.792 325.072 103.792C323.451 103.792 322.427 103.792 322 103.792C320.379 103.792 319.184 103.749 318.416 103.664L318.032 105.712C317.861 107.248 317.776 108.613 317.776 109.808C317.776 110.832 317.861 112.027 318.032 113.392C318.203 114.757 318.288 115.952 318.288 116.976L318.416 132.208L318.288 138.608C318.203 139.376 318.16 140.443 318.16 141.808C319.269 141.893 320.891 141.936 323.024 141.936C324.816 142.021 327.589 142.064 331.344 142.064L338.256 142.192C339.707 142.277 341.925 142.32 344.912 142.32C346.704 142.32 349.051 142.235 351.952 142.064L357.328 141.936C359.376 141.936 361.083 141.979 362.448 142.064C363.813 142.149 364.837 142.192 365.52 142.192C366.203 142.192 366.587 142.32 366.672 142.576C366.843 142.832 366.928 143.387 366.928 144.24C366.928 144.837 366.885 145.477 366.8 146.16C366.715 146.757 366.672 147.44 366.672 148.208C366.672 148.805 366.459 149.232 366.032 149.488C365.605 149.659 364.923 149.744 363.984 149.744C363.045 149.744 362.277 149.701 361.68 149.616C359.376 149.36 354.725 149.232 347.728 149.232C343.461 149.232 340.389 149.275 338.512 149.36C337.061 149.445 334.672 149.488 331.344 149.488L319.44 149.36C318.075 149.275 316.453 149.232 314.576 149.232C313.381 149.232 312.571 149.104 312.144 148.848C311.803 148.507 311.632 147.995 311.632 147.312L311.76 145.264C311.845 144.923 311.888 144.539 311.888 144.112C311.888 143.856 311.845 143.259 311.76 142.32C311.675 141.296 311.632 139.461 311.632 136.816C311.632 134.256 311.547 130.075 311.376 124.272C311.12 119.493 310.992 114.885 310.992 110.448C310.992 108.571 311.205 103.152 311.632 94.192C311.717 92.4 311.803 90.608 311.888 88.816C311.973 87.024 312.016 85.4027 312.016 83.952C312.016 74.0533 311.888 67.5253 311.632 64.368C311.376 62.32 312.613 61.296 315.344 61.296C316.027 61.296 317.136 61.3813 318.672 61.552C320.037 61.7227 321.061 61.808 321.744 61.808L329.808 61.552C335.611 61.2107 340.091 61.04 343.248 61.04C346.917 61.04 352.08 61.1253 358.736 61.296C360.869 61.3813 363.131 61.424 365.52 61.424C366.544 61.424 367.184 61.68 367.44 62.192C367.696 62.704 367.781 63.2587 367.696 63.856C367.696 64.368 367.696 64.7093 367.696 64.88V66.288ZM408.751 57.84C415.748 57.84 421.039 59.12 424.623 61.68C428.207 64.1547 430.682 66.4587 432.047 68.592C433.498 70.64 434.394 71.92 434.735 72.432C435.588 73.5413 436.015 74.3947 436.015 74.992C436.015 75.504 435.844 75.9307 435.503 76.272C435.162 76.6133 434.735 76.912 434.223 77.168C433.711 77.424 433.37 77.6373 433.199 77.808C432.175 78.4907 430.81 79.5573 429.103 81.008C428.335 81.6053 427.183 82.5013 425.647 83.696C424.196 84.8053 423.215 85.488 422.703 85.744C422.362 86 422.02 86.128 421.679 86.128C421.082 86.128 420.527 85.7867 420.015 85.104C419.503 84.4213 419.162 83.952 418.991 83.696C418.82 83.44 418.351 82.8853 417.583 82.032C416.9 81.1787 416.004 80.4533 414.895 79.856C413.786 79.2587 412.548 78.96 411.183 78.96C408.623 78.96 406.618 80.624 405.167 83.952C403.716 87.28 402.991 93.2107 402.991 101.744C402.991 107.376 403.46 111.984 404.399 115.568C405.338 119.152 406.447 121.755 407.727 123.376C409.092 124.912 410.372 125.68 411.567 125.68C413.274 125.68 414.554 125.296 415.407 124.528C416.346 123.76 417.156 122.309 417.839 120.176C418.522 118.128 419.631 117.104 421.167 117.104C421.679 117.104 422.234 117.189 422.831 117.36C423.514 117.531 424.026 117.659 424.367 117.744C425.22 118.085 427.311 118.64 430.639 119.408C433.967 120.091 436.826 120.645 439.215 121.072C440.41 121.328 441.007 122.352 441.007 124.144C441.007 124.997 440.964 125.637 440.879 126.064C440.794 127.173 440.452 128.667 439.855 130.544C438.063 136.005 434.991 140.955 430.639 145.392C426.372 149.744 419.972 151.92 411.439 151.92C406.234 151.92 400.986 150.341 395.695 147.184C390.404 144.027 385.924 138.779 382.255 131.44C378.586 124.016 376.751 114.288 376.751 102.256C376.751 85.1893 380.036 73.5413 386.607 67.312C393.178 60.9973 400.559 57.84 408.751 57.84ZM458.827 61.552C458.742 62.576 458.656 68.5493 458.571 79.472C458.486 90.3947 458.443 101.616 458.443 113.136C458.443 118.085 459.04 122.523 460.235 126.448C461.515 130.373 463.264 133.445 465.483 135.664C467.702 137.883 470.176 138.992 472.907 138.992C476.662 138.992 479.35 137.925 480.971 135.792C482.678 133.573 483.531 131.269 483.531 128.88L483.787 121.072C484.043 108.272 484.171 101.189 484.171 99.824C484.171 97.8613 484.256 93.9787 484.427 88.176C484.683 83.312 484.811 78.5333 484.811 73.84C484.811 69.6587 484.64 66.7147 484.299 65.008C484.043 63.984 483.915 63.1733 483.915 62.576C483.915 61.3813 484.171 60.656 484.683 60.4C485.28 60.0587 485.835 59.9307 486.347 60.016C486.944 60.016 487.328 60.016 487.499 60.016C488.352 60.1013 489.291 60.144 490.315 60.144C491.424 60.0587 492.406 60.016 493.259 60.016H496.587C497.952 60.016 498.72 60.2293 498.891 60.656C499.147 60.9973 499.318 61.808 499.403 63.088C499.574 64.9653 499.659 67.2693 499.659 70C499.659 71.8773 499.616 73.2427 499.531 74.096C499.446 74.9493 499.488 78.5333 499.659 84.848C500.086 95.2587 500.299 103.835 500.299 110.576V118.384C500.128 129.392 497.483 137.371 492.363 142.32C487.328 147.184 481.227 149.616 474.059 149.616C468.598 149.616 464.203 147.824 460.875 144.24C457.547 140.571 455.2 136.517 453.835 132.08C453.238 130.117 452.768 127.088 452.427 122.992C452.171 118.811 452.043 114.544 452.043 110.192C452.043 105.328 452.171 102.085 452.427 100.464C452.598 99.2693 452.683 95.3013 452.683 88.56C452.683 77.808 452.512 70.0427 452.171 65.264C452.086 64.752 452.043 64.0693 452.043 63.216C452.043 60.5707 452.854 59.5893 454.475 60.272L455.883 60.4C456.224 60.4 456.566 60.3573 456.907 60.272C457.334 60.1867 457.76 60.144 458.187 60.144C458.614 60.144 458.827 60.6133 458.827 61.552ZM539.631 73.712C539.29 80.7093 539.119 85.9573 539.119 89.456L539.375 108.784C539.46 111.856 539.503 115.013 539.503 118.256L539.247 132.208L539.119 134.768L539.247 138.352L539.503 142.832L557.807 143.472L573.039 143.6H573.295C573.807 143.6 574.106 143.685 574.191 143.856C574.276 144.027 574.276 144.283 574.191 144.624C574.191 144.88 574.191 145.093 574.191 145.264C574.106 145.605 574.106 146.245 574.191 147.184C574.362 148.123 574.447 148.976 574.447 149.744C574.447 150.341 574.234 150.725 573.807 150.896C573.38 151.067 572.826 151.109 572.143 151.024C571.546 151.024 571.076 151.024 570.735 151.024L563.951 150.64C557.978 150.128 553.754 149.872 551.279 149.872C548.548 149.872 541.636 150.128 530.543 150.64L518.895 151.024C517.018 151.024 516.079 150.171 516.079 148.464V138.48L516.591 95.6C516.591 92.3573 516.378 86.4693 515.951 77.936L515.439 62.192C515.439 60.7413 515.994 60.016 517.103 60.016C517.53 60.016 518.255 60.144 519.279 60.4C520.303 60.656 521.114 60.784 521.711 60.784C524.1 61.1253 526.959 61.296 530.287 61.296C532.591 61.296 534.767 61.168 536.815 60.912C538.095 60.7413 538.991 60.8267 539.503 61.168C540.015 61.5093 540.271 62.064 540.271 62.832C540.271 63.4293 540.186 64.0693 540.015 64.752C539.93 65.3493 539.887 66.032 539.887 66.8L539.631 73.712ZM586.404 59.76C587.513 59.8453 588.58 59.888 589.604 59.888C590.713 59.8027 591.652 59.76 592.42 59.76C594.297 59.76 595.663 59.8027 596.516 59.888C597.54 59.9733 598.265 60.1867 598.692 60.528C599.119 60.8693 599.332 61.3387 599.332 61.936C599.332 62.3627 599.289 62.832 599.204 63.344C599.119 63.856 599.033 64.3253 598.948 64.752C598.009 72.0053 597.497 79.472 597.412 87.152C597.327 89.3707 597.284 92.784 597.284 97.392L597.412 112.88C597.497 114.16 597.54 115.483 597.54 116.848L597.668 121.968C597.839 126.405 597.924 129.691 597.924 131.824C597.924 133.445 597.881 134.427 597.796 134.768C597.711 135.109 597.668 136.091 597.668 137.712L597.796 144.752C597.881 145.776 597.924 147.056 597.924 148.592C598.009 149.701 597.668 150.384 596.9 150.64C596.217 150.981 595.279 151.109 594.084 151.024H582.436C581.156 151.109 580.345 150.811 580.004 150.128C579.663 149.531 579.449 148.507 579.364 147.056C579.193 146.459 579.279 144.88 579.62 142.32C579.961 139.931 580.132 137.883 580.132 136.176C580.132 135.579 580.431 129.819 581.028 118.896C581.54 110.875 581.796 106.48 581.796 105.712L582.052 93.168L582.308 81.52L582.564 74.608L582.82 70V64.624C582.82 61.296 583.673 59.632 585.38 59.632C585.807 59.632 586.148 59.6747 586.404 59.76ZM668.729 148.208C668.985 148.805 669.113 149.232 669.113 149.488C669.113 149.829 668.644 150 667.705 150H660.537C660.196 150 659.897 149.957 659.641 149.872C659.47 149.701 659.3 149.36 659.129 148.848C658.788 147.909 658.318 146.373 657.721 144.24C656.953 142.107 656.441 140.187 656.185 138.48C655.929 137.2 655.502 135.664 654.905 133.872C654.393 132.08 653.924 130.715 653.497 129.776C652.729 128.155 652.046 126.32 651.449 124.272L650.297 120.56C649.87 119.621 649.529 119.067 649.273 118.896C649.102 118.64 648.761 118.512 648.249 118.512C646.457 118.512 645.134 118.555 644.281 118.64L638.777 118.896C638.094 118.981 634.937 119.024 629.305 119.024H621.497H621.241C620.729 119.024 620.345 119.493 620.089 120.432L619.833 121.712L619.321 124.144C619.15 124.571 618.596 127.045 617.657 131.568C617.401 133.019 616.974 134.896 616.377 137.2C616.206 138.907 615.822 140.315 615.225 141.424C615.054 141.68 614.841 142.277 614.585 143.216C614.329 144.155 614.116 144.923 613.945 145.52C613.689 146.203 613.39 147.312 613.049 148.848C612.964 148.933 612.878 149.147 612.793 149.488C612.708 149.744 612.58 149.915 612.409 150C612.238 150 611.982 150 611.641 150H609.081C608.313 150 608.1 149.445 608.441 148.336C608.441 148.08 608.484 147.867 608.569 147.696C608.569 147.525 608.612 147.312 608.697 147.056C608.782 146.8 608.91 146.416 609.081 145.904L610.233 141.168C610.404 140.656 610.702 139.76 611.129 138.48C611.556 137.2 611.854 136.005 612.025 134.896C612.452 132.848 613.262 129.733 614.457 125.552L615.481 121.968C617.102 116.677 618.126 112.965 618.553 110.832L620.345 104.048C621.198 101.232 621.71 99.44 621.881 98.672C622.478 96.112 623.332 92.912 624.441 89.072L625.337 85.488L626.105 82.8C626.958 79.8987 627.684 77.808 628.281 76.528C628.452 76.016 629.049 74.2667 630.073 71.28C631.182 68.208 631.908 65.776 632.249 63.984C632.846 61.936 633.444 60.4 634.041 59.376C634.724 58.352 635.62 57.84 636.729 57.84C637.156 57.84 637.582 58.224 638.009 58.992C638.436 59.76 638.862 60.6987 639.289 61.808C639.716 62.9173 640.014 63.728 640.185 64.24C640.868 65.8613 642.062 69.9147 643.769 76.4L644.793 79.984C644.878 80.6667 646.286 84.848 649.017 92.528L651.449 99.568L653.753 105.584C656.142 112.325 657.678 116.421 658.361 117.872C661.348 126.917 663.097 132.379 663.609 134.256C664.206 136.475 665.145 139.248 666.425 142.576C667.79 145.904 668.558 147.781 668.729 148.208ZM644.793 110.192C645.902 110.192 646.457 109.893 646.457 109.296C646.457 108.869 646.158 107.931 645.561 106.48C645.049 105.2 644.281 102.811 643.257 99.312C642.489 96.496 641.721 94.064 640.953 92.016C640.1 89.456 639.161 86.4267 638.137 82.928C637.198 79.4293 636.644 77.168 636.473 76.144C635.193 71.6213 634.34 69.36 633.913 69.36C633.657 69.36 633.23 70.512 632.633 72.816L631.865 75.632C631.268 77.936 630.5 80.8373 629.561 84.336C628.622 87.7493 627.769 90.6507 627.001 93.04C626.489 95.2587 625.764 98.0747 624.825 101.488C623.972 104.816 623.289 107.12 622.777 108.4C622.606 108.912 622.521 109.211 622.521 109.296C622.521 109.893 622.777 110.277 623.289 110.448C623.886 110.619 624.441 110.704 624.953 110.704C625.55 110.619 625.934 110.576 626.105 110.576L633.529 110.32C634.553 110.149 636.004 110.064 637.881 110.064L644.793 110.192ZM736.42 144.752C738.724 147.056 739.876 148.635 739.876 149.488C739.876 149.659 739.663 149.957 739.236 150.384C738.468 150.896 736.548 151.152 733.476 151.152C731.257 151.152 729.849 150.981 729.252 150.64C728.655 150.384 728.185 149.915 727.844 149.232C727.588 148.549 727.375 148.037 727.204 147.696C726.948 147.184 725.881 145.733 724.004 143.344C722.212 140.869 720.847 138.992 719.908 137.712C715.385 131.909 711.46 126.661 708.132 121.968C706.084 119.067 702.287 114.075 696.74 106.992L694.692 104.432L685.86 93.424L685.348 98.544C685.007 101.104 684.921 104.176 685.092 107.76C685.348 110.149 685.519 116.336 685.604 126.32C685.689 136.304 685.732 143.6 685.732 148.208C685.732 149.573 685.22 150.427 684.196 150.768C683.172 151.195 681.977 151.408 680.612 151.408C680.015 151.408 679.631 151.152 679.46 150.64C679.289 150.128 679.161 149.573 679.076 148.976C679.076 148.379 679.076 147.995 679.076 147.824C678.905 146.459 678.82 144.453 678.82 141.808C678.82 140.101 678.863 138.821 678.948 137.968C679.033 133.36 679.161 125.339 679.332 113.904C679.503 102.384 679.588 92.0587 679.588 82.928C679.588 73.1147 679.46 67.3973 679.204 65.776C679.119 65.0933 679.076 64.1973 679.076 63.088C679.076 61.808 679.247 60.9973 679.588 60.656C680.015 60.3147 680.612 60.144 681.38 60.144C683.087 60.144 684.751 60.1867 686.372 60.272L700.324 60.528C705.444 60.528 710.777 61.424 716.324 63.216C721.871 65.008 724.644 68.336 724.644 73.2C724.644 77.808 722.937 81.392 719.524 83.952C716.111 86.512 712.271 88.2613 708.004 89.2C703.823 90.1387 700.153 90.608 696.996 90.608C695.887 90.608 695.289 90.5653 695.204 90.48C695.716 90.992 699.087 95.5147 705.316 104.048C724.089 129.221 734.457 142.789 736.42 144.752ZM685.476 85.36C688.292 85.36 690.425 85.3173 691.876 85.232C696.825 85.0613 700.665 84.72 703.396 84.208C707.321 83.5253 710.265 82.5867 712.228 81.392C714.276 80.1973 715.3 78.32 715.3 75.76C715.3 74.0533 714.404 72.6027 712.612 71.408C710.82 70.128 708.644 69.1893 706.084 68.592C703.609 67.9093 701.433 67.568 699.556 67.568C697.423 67.4827 694.436 67.44 690.596 67.44H686.244L685.476 85.36Z" fill="#FFCCB2"/>
<path d="M76.5 52C76.5 49.6564 76.5 47.8461 76.5 45.3686C76.8047 45.3686 77.6121 45.3811 77.9185 45.3686C89.1379 44.9137 100.362 44.5507 111.575 43.9732C122.768 43.3968 133.961 42.9429 145.168 43.0058C155.743 43.0653 166.278 43.7864 176.696 45.6814C185.757 47.3295 194.538 49.8875 202.789 54.1092C210.323 57.9643 216.894 63.0321 222.459 69.4107C230.491 78.6178 235.776 89.2665 238.869 101.038C241.319 110.361 242.197 119.848 241.664 129.477C241.112 139.435 239.061 149.053 235.251 158.271C230.932 168.721 224.744 177.879 216.196 185.339C209.095 191.536 200.964 195.894 192.004 198.758C185.697 200.774 179.238 202.017 172.674 202.774C161.779 204.03 150.845 203.996 139.905 203.775C133.598 203.647 127.291 203.545 120.984 203.432C120.692 203.427 120.4 203.431 120.038 203.431C119.976 203.167 119.918 202.918 119.813 202.547C119.747 195.042 119.729 187.661 119.702 180.28C119.701 179.857 119.67 179.424 119.576 179.014C117.168 168.489 114.746 157.968 112.334 147.444C111.146 142.26 109.972 137.072 108.792 131.839C108.829 131.448 108.873 131.105 108.901 130.761C109.243 126.65 109.58 122.538 109.923 118.426C110.379 112.962 110.842 107.499 111.297 102.035C111.692 97.287 112.08 92.5389 112.47 87.7909C112.897 82.5927 113.322 77.3944 113.782 72.1436C113.932 70.7655 114.074 69.4416 114.155 68.1139C114.213 67.1783 114.188 66.2377 114.189 65.2368C114.282 64.1503 114.385 63.126 114.491 62.1021C114.641 60.6619 114.799 59.2225 114.94 57.7816C115.03 56.8652 115.098 55.9465 115.18 54.9718C114.792 54.945 114.505 54.9233 114.219 54.9057C110.56 54.6801 106.9 54.4612 103.241 54.2286C97.7273 53.8783 92.214 53.5187 86.7005 53.1626C83.4669 52.9538 83.5 53 76.5 52ZM177.537 157.052C182.78 154.431 186.836 150.534 189.789 145.491C192.859 140.247 194.254 134.516 194.432 128.484C194.683 119.971 192.723 111.998 188.359 104.658C186.245 101.104 183.629 97.9584 180.444 95.317C176.226 91.8188 171.347 89.6774 166.073 88.3217C159.199 86.5548 152.189 85.9101 145.132 85.8475C137.95 85.7839 130.765 85.9642 123.58 86.0337C122.417 86.045 121.253 86.0353 120.056 86.0353C120.056 110.872 120.056 135.568 120.056 160.305C120.364 160.32 120.625 160.334 120.887 160.347C126.865 160.633 132.847 160.871 138.822 161.216C147.437 161.714 156.044 162.043 164.63 160.833C169.075 160.207 173.396 159.148 177.537 157.052Z" fill="#FF9F70"/>
<path fill-rule="evenodd" clip-rule="evenodd" d="M0.160156 179.68C0.160156 160.156 0.160156 140.633 0.223569 121.022C0.268391 120.961 0.310746 120.913 0.346832 120.871L0.347005 120.871L0.347288 120.871L0.347551 120.87L0.34758 120.87C0.409904 120.799 0.453358 120.749 0.458213 120.695L0.458214 120.695C0.450769 120.777 0.352534 120.851 0.234683 120.939L0.234666 120.939L0.22357 120.948C0.160156 118.29 0.160156 115.62 0.160156 112.875C0.47636 112.802 0.792563 112.8 1.17259 112.797L1.2068 112.797C1.14774 113.654 1.04957 114.51 0.951231 115.369L0.95122 115.369L0.951212 115.369C0.900638 115.81 0.850021 116.252 0.804658 116.695L0.804657 116.695C0.906676 115.7 1.03527 114.708 1.16758 113.687L1.16759 113.687C1.20851 113.371 1.24979 113.053 1.29075 112.731C1.45009 111.561 1.60127 110.397 1.75183 109.237L1.75186 109.237C2.05448 106.907 2.35461 104.597 2.7134 102.295C2.95932 100.718 3.20087 99.1393 3.44244 97.5608C4.31655 91.8491 5.19082 86.1363 6.27235 80.4638C7.87199 72.0739 10.3343 63.9244 14.1914 56.2543C16.4996 51.6641 19.2928 47.4073 22.7072 43.5554C28.7834 36.7007 36.0288 31.3231 43.898 26.7612C54.8943 20.3865 66.6906 15.9132 78.8508 12.3711C93.0812 8.22596 107.618 5.58406 122.34 4.06234C131.307 3.13555 140.307 2.4255 149.311 1.99696C162.239 1.38158 175.171 1.64906 188.072 2.85299C196.019 3.59462 203.92 4.64149 211.745 6.23977C222.399 8.41614 232.794 11.4277 242.777 15.7984C251.456 19.5984 259.524 24.3933 266.789 30.5018C274.465 36.9566 280.57 44.7147 285.338 53.5039C286.888 56.3613 288.255 59.3183 289.623 62.2749L289.623 62.2754L289.623 62.276L289.624 62.2765L289.624 62.2771L289.624 62.2776C290.177 63.473 290.73 64.6683 291.295 65.857C291.478 66.2421 291.614 66.6496 291.754 67.0683C291.822 67.2735 291.892 67.4814 291.968 67.6907C291.999 67.6862 292.046 67.7177 292.089 67.7924C292.043 67.8126 292.012 67.7928 291.986 67.7369C292.012 67.7955 292.045 67.8272 292.1 67.868C292.103 67.8752 292.105 67.8842 292.107 67.8943C292.11 67.9078 292.112 67.9231 292.114 67.9386L292.114 67.9395C292.117 67.9648 292.121 67.9903 292.127 68.0082C292.16 68.0042 292.206 68.037 292.248 68.1124C292.207 68.1306 292.177 68.1171 292.153 68.0743C292.178 68.1238 292.21 68.1561 292.26 68.2036C292.273 68.318 292.274 68.3845 292.269 68.5173C292.269 68.5177 292.269 68.5181 292.269 68.5185C292.421 68.901 292.579 69.2856 292.738 69.6729L292.738 69.6733C293.216 70.8382 293.705 72.0275 294.059 73.2557C295.12 76.9335 296.173 80.6204 297.014 84.3523C297.523 86.6089 297.789 88.9249 298.054 91.2323V91.2326C298.088 91.5327 298.123 91.8327 298.158 92.1323C298.401 94.2163 298.56 96.3153 298.639 98.4121C298.759 101.563 298.829 104.715 298.9 107.903L298.9 107.907L298.901 107.911L298.901 107.915L298.901 107.919C298.921 108.823 298.941 109.73 298.962 110.641C298.92 110.566 298.864 110.45 298.836 110.321C298.852 110.397 298.877 110.475 298.905 110.559C298.926 110.624 298.948 110.692 298.968 110.765C298.987 110.884 298.992 110.953 298.947 111.066C298.947 111.066 298.946 111.066 298.946 111.067C299.042 111.265 299.125 111.508 299.126 111.751C299.137 113.49 299.131 115.228 299.122 117.041C299.084 116.939 299.035 116.803 299.005 116.655C299.021 116.741 299.044 116.829 299.067 116.922L299.068 116.922L299.068 116.923C299.087 117 299.108 117.081 299.127 117.167C299.145 117.289 299.15 117.359 299.103 117.474C299.103 117.474 299.103 117.474 299.103 117.474C299.201 117.542 299.283 117.652 299.286 117.764C299.32 119.105 299.35 120.446 299.379 121.787C299.403 122.859 299.427 123.931 299.453 125.003C299.5 126.99 299.552 128.977 299.614 130.963C299.635 131.659 299.664 132.354 299.694 133.049C299.721 133.7 299.748 134.352 299.769 135.003C299.841 137.214 299.909 139.425 299.977 141.636C300.015 142.865 300.053 144.095 300.091 145.324C300.109 145.872 300.129 146.421 300.149 146.969C300.188 148.06 300.228 149.151 300.246 150.243L300.256 150.871C300.319 154.781 300.382 158.691 300.403 162.601C300.424 166.729 300.39 170.858 300.318 175.019C300.185 172.843 300.094 170.648 300.005 168.449C300.081 170.38 300.151 172.319 300.223 174.289L300.223 174.301L300.224 174.323L300.225 174.337L300.225 174.346L300.253 175.126C300.28 176.28 300.31 177.425 300.339 178.563L300.339 178.567L300.339 178.571L300.339 178.575L300.339 178.578L300.339 178.582C300.388 180.478 300.437 182.356 300.472 184.235C300.657 193.945 300.416 203.627 299.016 213.267C297.514 223.603 294.327 233.367 289.463 242.579C280.901 258.797 268.838 271.918 253.962 282.502C246.716 287.658 238.96 291.917 230.715 295.249C222.489 298.573 213.95 300.675 205.148 301.809L203.799 301.983C194.409 303.194 185.018 304.405 175.565 304.978C166.962 305.499 158.35 305.949 149.734 306.194C138.794 306.504 127.862 306.09 116.961 305.089C113.342 304.756 109.734 304.295 106.128 303.834L106.127 303.834L105.156 303.71C103.278 303.47 101.406 303.18 99.5347 302.891L99.5338 302.891L99.5329 302.891L99.5321 302.891L99.5312 302.891C98.8077 302.779 98.0843 302.667 97.3604 302.557C96.3136 302.4 95.269 302.227 94.1864 302.02L94.1862 302.02C93.9236 302.058 93.6241 302.055 93.292 301.998C93.5325 301.959 93.8 301.966 94.0979 302.007C93.8317 301.97 93.5846 301.956 93.3088 301.941L93.3079 301.941L93.2074 301.936C93.0858 301.919 93.0166 301.91 92.9363 301.842L92.9362 301.841L92.6313 301.808L92.6304 301.808C91.3643 301.67 90.0799 301.531 88.8228 301.263C85.0935 300.468 81.3884 299.572 77.8019 298.246C77.5234 298.143 77.2447 298.041 76.9654 297.939C76.0215 297.592 75.0717 297.244 74.1055 296.861L74.1508 296.862H74.152C74.434 296.866 74.7431 296.871 75.0372 296.937C74.8377 296.892 74.6275 296.872 74.4081 296.851L74.4072 296.851C74.283 296.839 74.1559 296.826 74.0261 296.809C73.9113 296.8 73.8462 296.79 73.7608 296.746L73.7605 296.746C73.7313 296.762 73.6818 296.745 73.6143 296.687C73.6372 296.669 73.6667 296.673 73.7035 296.698C73.6625 296.67 73.6212 296.657 73.5614 296.648C73.5264 296.648 73.4617 296.62 73.4413 296.587C73.4219 296.569 73.4041 296.555 73.3857 296.543C73.4024 296.554 73.4208 296.569 73.4409 296.587C73.4118 296.603 73.3624 296.585 73.2969 296.527C73.3167 296.513 73.3416 296.517 73.3727 296.534C73.3334 296.511 73.2895 296.498 73.2208 296.487C72.2995 296.091 71.3796 295.7 70.462 295.31L70.4614 295.31L70.461 295.31C67.6599 294.119 64.8803 292.937 62.1468 291.656C53.969 287.824 46.4346 282.988 40.0386 276.56C30.4782 266.951 23.0621 255.816 17.2685 243.59C9.58083 227.366 4.94011 210.227 2.23943 192.527C1.85189 189.987 1.53134 187.437 1.21077 184.887C1.01649 183.341 0.82221 181.796 0.613011 180.252C0.593823 180.111 0.462828 179.984 0.331835 179.858C0.270847 179.799 0.209859 179.74 0.160156 179.68ZM76.6694 53.0836L76.6675 53.1658C76.6641 53.3111 76.6606 53.4564 76.6606 53.6017C76.6601 122.074 76.6601 190.547 76.6601 259.019V265.151L76.6601 265.966H119.697L119.697 265.824C119.697 265.698 119.697 265.584 119.697 265.469C119.681 261.2 119.665 256.93 119.65 252.66C119.612 242.587 119.575 232.513 119.54 222.44C119.518 215.908 119.505 209.377 119.56 202.952L120 203H120.5C120.5 203 133.194 203.585 139.5 203.713C150.441 203.935 161.105 203.756 172 202.5C172.441 202.449 172.883 202.399 173.326 202.348L173.326 202.348C179.48 201.645 185.821 200.92 191.705 199.04C200.665 196.176 208.796 191.818 215.896 185.621C224.445 178.161 230.632 169.003 234.952 158.552C238.761 149.335 240.812 139.717 241.364 129.759C241.898 120.13 241.02 110.643 238.57 101.32C235.476 89.5484 230.192 78.8997 222.159 69.6926C216.594 63.314 210.024 58.2462 202.489 54.3911C194.238 50.1694 185.457 47.6114 176.397 45.9633C165.979 44.0683 155.443 43.3472 144.868 43.2877C133.661 43.2248 122.468 43.6786 111.276 44.2551C103.428 44.6592 95.5755 44.9583 87.7227 45.2574H87.7226L87.7216 45.2575C84.3539 45.3857 80.9862 45.514 77.6189 45.6505C77.4098 45.659 77.2002 45.6567 76.9914 45.6543H76.9909H76.9904H76.99H76.9895H76.9891C76.8927 45.6532 76.7964 45.6521 76.7004 45.6521C76.7004 48.1295 76.7004 50.4731 76.6719 52.9621L76.6694 53.0836ZM0.55287 119.589C0.566608 119.421 0.580194 119.254 0.593773 119.086L0.593774 119.086C0.580192 119.254 0.56661 119.421 0.55287 119.589Z" fill="#575BFE"/>
<path d="M177.485 157.083C173.396 159.148 169.075 160.207 164.63 160.833C156.043 162.043 147.436 161.714 138.822 161.216C132.846 160.871 126.865 160.633 120.886 160.347C120.625 160.334 120.363 160.321 120.056 160.305C120.056 135.568 120.056 110.872 120.056 86.0354C121.252 86.0354 122.416 86.0451 123.58 86.0338C130.764 85.9643 137.949 85.784 145.132 85.8476C152.189 85.9102 159.198 86.5549 166.072 88.3218C171.347 89.6775 176.225 91.8189 180.444 95.3171C183.629 97.9585 186.245 101.104 188.358 104.659C192.722 111.998 194.682 119.971 194.431 128.484C194.253 134.516 192.858 140.248 189.788 145.491C186.835 150.534 182.779 154.431 177.485 157.083Z" fill="#575BFE"/>
<path d="M70.0249 58C73.1319 58.1353 76.2251 58.3429 79.3185 58.5497C84.593 58.9024 89.8673 59.2584 95.1422 59.6053C98.6425 59.8356 102.144 60.0524 105.644 60.2758C105.918 60.2932 106.192 60.3147 106.563 60.3413C106.485 61.3065 106.42 62.2162 106.334 63.1236C106.199 64.5506 106.048 65.9759 105.905 67.4021C105.803 68.416 105.705 69.4303 105.603 70.5754C105.406 72.9374 105.212 75.1684 105.006 77.4667C104.637 81.4181 104.277 85.3019 103.923 89.1862C103.544 93.3334 103.173 97.4814 102.793 101.628C102.356 106.406 101.911 111.183 101.47 115.961C101.033 120.686 100.605 125.412 100.157 130.136C99.9537 132.277 99.6226 134.419 100.452 136.506C101.581 141.642 102.704 146.779 103.841 151.912C106.149 162.333 110.575 172.752 112.879 183.175C112.969 183.581 112.998 184.01 113 184.428C113.025 191.737 110.932 199.047 110.962 206.425C110.988 212.962 111 219.43 111.021 225.898C111.069 240.102 111.121 254.305 111.171 268.508C111.172 268.663 111.171 268.817 111.171 269C97.4402 269 83.7533 269 70 269C70 268.708 70 268.451 70 268.193C70 198.364 70 128.535 70.0005 58.7053C70.0005 58.4942 70.0075 58.2831 70.0249 58Z" fill="#FFE363"/>
</svg>
