<svg xmlns="http://www.w3.org/2000/svg" width="20" height="21" fill="none"><path fill="#000" d="M13 12.996a1 1 0 1 0 0-2v2Zm-7-1v-1a1 1 0 0 0-.116 1.993L6 11.996Zm2.333-3.822h1-1Zm0-3.277.796.606-.796-.606Zm3.31 1.18A1 1 0 0 0 13.19 4.81l-1.547 1.268Zm.19 3.643a1 1 0 1 0 0-2v2ZM6 7.72a1 1 0 0 0 0 2v-2ZM7 15h1v-1H7v1Zm4.5 0v-1h-.445l-.298.331.743.669Zm1.5-4.004H6.192v2H13v-2Zm-6.808 0H6v2h.192v-2Zm-.192 1-.116.993h.002a.47.47 0 0 0 .008.002h.013a2.775 2.775 0 0 0 .112.008c.064.002.147.002.244-.005l-.141-1.995a.383.383 0 0 1-.039 0L6.09 11l.01.001.007.001h.008v.001L6 11.996Zm.263.998a2.878 2.878 0 0 0 1.96-.999c.681-.774 1.11-1.99 1.11-3.821h-2c0 1.541-.362 2.216-.612 2.5-.24.275-.494.317-.6.325l.142 1.995Zm3.07-4.82c0-.564-.093-1.389-.13-1.93a5.92 5.92 0 0 1-.015-.729c.015-.238.053-.159-.059-.012L7.538 4.292c-.282.37-.33.84-.346 1.094a7.86 7.86 0 0 0 .016.992c.049.722.125 1.312.125 1.796h2ZM9.13 5.503c.302-.397.547-.479.701-.498.19-.023.435.03.734.187.294.156.567.376.777.572a4.444 4.444 0 0 1 .305.316h-.001v-.002h-.001l.773-.635.772-.634v-.001l-.001-.002a5.721 5.721 0 0 0-1.69-1.382c-.503-.266-1.17-.494-1.91-.404-.774.094-1.477.519-2.05 1.272l1.591 1.21Zm2.704 2.217H6v2h5.833v-2ZM3 2h14V0H3v2Zm15 1v10h2V3h-2ZM2 13V3H0v10h2Zm5 1H3v2h4v-2Zm10 0h-5.5v2H17v-2ZM6 19.5a1.032 1.032 0 0 0 1.318.995c.223-.062.4-.19.46-.234.181-.13.398-.324.612-.526a44.466 44.466 0 0 0 1.586-1.61 136.173 136.173 0 0 0 2.216-2.399l.038-.042.01-.011.002-.003h.001L11.5 15l-.743-.669h-.001l-.002.003a1.238 1.238 0 0 0-.01.01l-.037.042a108.722 108.722 0 0 1-.648.712c-.42.459-.978 1.064-1.535 1.652a42.738 42.738 0 0 1-1.507 1.53 5 5 0 0 1-.41.36c-.06.044.019-.028.176-.072A.968.968 0 0 1 8 19.5H6Zm2 0V15H6v4.5h2ZM0 13a3 3 0 0 0 3 3v-2a1 1 0 0 1-1-1H0Zm18 0a1 1 0 0 1-1 1v2a3 3 0 0 0 3-3h-2ZM17 2a1 1 0 0 1 1 1h2a3 3 0 0 0-3-3v2ZM3 0a3 3 0 0 0-3 3h2a1 1 0 0 1 1-1V0Z"/></svg>